<svg xmlns="http://www.w3.org/2000/svg" data-d2-version="v0.6.9" preserveAspectRatio="xMinYMin meet" viewBox="0 0 1168 1365"><svg width="1168" height="1365" class="d2-3030410505 d2-svg" viewBox="-23 -53 1168 1365"><rect width="1168" height="1365" x="-23" y="-53" stroke-width="0" rx="0" style="fill:#fff"/><style>.d2-3030410505 .text{font-family:&quot;d2-3030410505-font-regular&quot;}.d2-3030410505 .text-bold{font-family:&quot;d2-3030410505-font-bold&quot;}.d2-3030410505 .text-italic{font-family:&quot;d2-3030410505-font-italic&quot;}.connection,.shape{stroke-linejoin:round}.shape{shape-rendering:geometricPrecision}.connection{stroke-linecap:round}.d2-3030410505 .fill-N1{fill:#0a0f25}.d2-3030410505 .fill-N2{fill:#676c7e}.d2-3030410505 .fill-B4{fill:#e3e9fd}.d2-3030410505 .fill-B5{fill:#edf0fd}.d2-3030410505 .fill-AA5{fill:#f7f8fe}.d2-3030410505 .stroke-B1{stroke:#0d32b2}</style><g class="cGhhc2Ux"><g class="shape"><path fill="#e3e9fd" stroke="#0d32b2" d="M10 20h246v632H10z" class="stroke-B1 fill-B4" style="stroke-width:2"/></g><text x="133" y="7" fill="#0a0f25" class="text fill-N1" style="text-anchor:middle;font-size:28px">① 类加载阶段</text></g><g class="cGhhc2Uy"><g class="shape"><path fill="#e3e9fd" stroke="#0d32b2" d="M296 28h412v624H296z" class="stroke-B1 fill-B4" style="stroke-width:2"/></g><text x="502" y="15" fill="#0a0f25" class="text fill-N1" style="text-anchor:middle;font-size:28px">② 运行时数据</text></g><g class="cGhhc2Uz"><g class="shape"><path fill="#e3e9fd" stroke="#0d32b2" d="M748 20h364v1259H748z" class="stroke-B1 fill-B4" style="stroke-width:2"/></g><text x="930" y="7" fill="#0a0f25" class="text fill-N1" style="text-anchor:middle;font-size:28px">③ 反射桥接</text></g><g class="cGhhc2UxLmNs"><g class="shape"><path fill="#edf0fd" stroke="#0d32b2" d="M67 50h132v82H67z" class="stroke-B1 fill-B5" style="stroke-width:2"/></g><text x="133" y="88.5" fill="#0a0f25" class="text-bold fill-N1" style="text-anchor:middle;font-size:16px"><tspan x="133" dy="0">ClassLoader</tspan><tspan x="133" dy="18.5">loadClass</tspan></text></g><g class="cGhhc2UxLmRm"><g class="shape"><path fill="#edf0fd" stroke="#0d32b2" d="M41 295h184v82H41z" class="stroke-B1 fill-B5" style="stroke-width:2"/></g><text x="133" y="333.5" fill="#0a0f25" class="text-bold fill-N1" style="text-anchor:middle;font-size:16px"><tspan x="133" dy="0">defineClass</tspan><tspan x="133" dy="18.5">解析.class字节流</tspan></text></g><g class="cGhhc2UxLmlrX2NyZWF0ZQ=="><g class="shape"><path fill="#edf0fd" stroke="#0d32b2" d="M40 540h186v82H40z" class="stroke-B1 fill-B5" style="stroke-width:2"/></g><text x="133" y="578.5" fill="#0a0f25" class="text-bold fill-N1" style="text-anchor:middle;font-size:16px"><tspan x="133" dy="0">创建 InstanceKlass</tspan><tspan x="133" dy="18.5">填充 Metaspace</tspan></text></g><g class="cGhhc2UyLm1ldGE="><g class="shape"><path fill="#f7f8fe" stroke="#0d32b2" d="M326 277c0-24 68-24 76-24 7 0 75 0 75 24v118c0 24-68 24-75 24-8 0-76 0-76-24z" class="stroke-B1 fill-AA5" style="stroke-width:2"/><path fill="#f7f8fe" stroke="#0d32b2" d="M326 277c0 24 68 24 76 24 7 0 75 0 75-24" class="stroke-B1 fill-AA5" style="stroke-width:2"/></g><text x="401.5" y="329.5" fill="#0a0f25" class="text-bold fill-N1" style="text-anchor:middle;font-size:16px"><tspan x="401.5" dy="0">Metaspace</tspan><tspan x="401.5" dy="17.25">InstanceKlass</tspan><tspan x="401.5" dy="17.25">+ConstantPool</tspan><tspan x="401.5" dy="17.25">+Method+Field</tspan></text></g><g class="cGhhc2UyLmhlYXBfY2xhc3M="><g class="shape"><path fill="#edf0fd" stroke="#0d32b2" d="M537 295h125v82H537z" class="stroke-B1 fill-B5" style="stroke-width:2"/></g><text x="599.5" y="333.5" fill="#0a0f25" class="text-bold fill-N1" style="text-anchor:middle;font-size:16px"><tspan x="599.5" dy="0">Class 对象</tspan><tspan x="599.5" dy="18.5">mirror</tspan></text></g><g class="cGhhc2UyLmhlYXBfb2Jq"><g class="shape"><path fill="#edf0fd" stroke="#0d32b2" d="M522 540h156v82H522z" class="stroke-B1 fill-B5" style="stroke-width:2"/></g><text x="600" y="578.5" fill="#0a0f25" class="text-bold fill-N1" style="text-anchor:middle;font-size:16px"><tspan x="600" dy="0">实例对象</tspan><tspan x="600" dy="18.5">new HelloWorld</tspan></text></g><g class="cGhhc2UyLmlrX2NyZWF0ZQ=="><g class="shape"><path fill="#edf0fd" stroke="#0d32b2" d="M445 58h111v66H445z" class="stroke-B1 fill-B5" style="stroke-width:2"/></g><text x="500.5" y="96.5" fill="#0a0f25" class="text-bold fill-N1" style="text-anchor:middle;font-size:16px">ik_create</text></g><g class="cGhhc2UzLmdldF9jbGFzcw=="><g class="shape"><path fill="#edf0fd" stroke="#0d32b2" d="M778 540h202v82H778z" class="stroke-B1 fill-B5" style="stroke-width:2"/></g><text x="879" y="578.5" fill="#0a0f25" class="text-bold fill-N1" style="text-anchor:middle;font-size:16px"><tspan x="879" dy="0">obj.getClass()</tspan><tspan x="879" dy="18.5">读对象头Klass指针</tspan></text></g><g class="cGhhc2UzLmdldF9tZXRob2Rz"><g class="shape"><path fill="#edf0fd" stroke="#0d32b2" d="M778 980h203v82H778z" class="stroke-B1 fill-B5" style="stroke-width:2"/></g><text x="879.5" y="1018.5" fill="#0a0f25" class="text-bold fill-N1" style="text-anchor:middle;font-size:16px"><tspan x="879.5" dy="0">getDeclaredMethods()</tspan><tspan x="879.5" dy="18.5">JNI读Method数组</tspan></text></g><g class="cGhhc2UzLmludm9rZQ=="><g class="shape"><path fill="#edf0fd" stroke="#0d32b2" d="M850 50h200v82H850z" class="stroke-B1 fill-B5" style="stroke-width:2"/></g><text x="950" y="88.5" fill="#0a0f25" class="text-bold fill-N1" style="text-anchor:middle;font-size:16px"><tspan x="950" dy="0">method.invoke(obj)</tspan><tspan x="950" dy="18.5">MethodAccessor执行</tspan></text></g><g class="cGhhc2UzLmhlYXBfb2Jq"><g class="shape"><path fill="#edf0fd" stroke="#0d32b2" d="M824 303h110v66H824z" class="stroke-B1 fill-B5" style="stroke-width:2"/></g><text x="879" y="341.5" fill="#0a0f25" class="text-bold fill-N1" style="text-anchor:middle;font-size:16px">heap_obj</text></g><g class="cGhhc2UzLmhlYXBfY2xhc3M="><g class="shape"><path fill="#edf0fd" stroke="#0d32b2" d="M818 793h122v66H818z" class="stroke-B1 fill-B5" style="stroke-width:2"/></g><text x="879" y="831.5" fill="#0a0f25" class="text-bold fill-N1" style="text-anchor:middle;font-size:16px">heap_class</text></g><g class="cGhhc2UzLm1ldGE="><g class="shape"><path fill="#edf0fd" stroke="#0d32b2" d="M909 1183h81v66h-81z" class="stroke-B1 fill-B5" style="stroke-width:2"/></g><text x="949.5" y="1221.5" fill="#0a0f25" class="text-bold fill-N1" style="text-anchor:middle;font-size:16px">meta</text></g><g class="cGhhc2UxLihjbCAtJmd0OyBkZilbMF0="><marker id="mk-d2-3030410505-3488378134" markerHeight="12" markerUnits="userSpaceOnUse" markerWidth="10" orient="auto" refX="7" refY="6" viewBox="0 0 10 12"><path stroke-width="2" d="m0 0 10 6-10 6z" class="connection" style="fill:#0d32b2"/></marker><path fill="none" stroke="#0d32b2" marker-end="url(#mk-d2-3030410505-3488378134)" d="M133 133.5v158" class="connection stroke-B1" mask="url(#d2-3030410505)" style="stroke-width:2"/><text x="133.5" y="219" fill="#676c7e" class="text-italic fill-N2" style="text-anchor:middle;font-size:16px">1.读字节流</text></g><g class="cGhhc2UxLihkZiAtJmd0OyBpa19jcmVhdGUpWzBd"><path fill="none" stroke="#0d32b2" marker-end="url(#mk-d2-3030410505-3488378134)" d="M133 378.5v158" class="connection stroke-B1" mask="url(#d2-3030410505)" style="stroke-width:2"/><text x="133" y="464" fill="#676c7e" class="text-italic fill-N2" style="text-anchor:middle;font-size:16px">2.构建Klass</text></g><g class="cGhhc2UyLihpa19jcmVhdGUgLSZndDsgbWV0YSlbMF0="><path fill="none" stroke="#0d32b2" marker-end="url(#mk-d2-3030410505-3488378134)" d="M467.107 124.935C414.9 178.7 401.6 204.6 401.967 249" class="connection stroke-B1" mask="url(#d2-3030410505)" style="stroke-width:2"/><text x="414.5" y="184" fill="#676c7e" class="text-italic fill-N2" style="text-anchor:middle;font-size:16px">3.存入</text></g><g class="cGhhc2UyLihpa19jcmVhdGUgLSZndDsgaGVhcF9jbGFzcylbMF0="><path fill="none" stroke="#0d32b2" marker-end="url(#mk-d2-3030410505-3488378134)" d="M533.893 124.935C586.1 178.7 599.5 213.1 599.5 291.5" class="connection stroke-B1" mask="url(#d2-3030410505)" style="stroke-width:2"/><text x="593.5" y="204" fill="#676c7e" class="text-italic fill-N2" style="text-anchor:middle;font-size:16px">4.创建mirror</text></g><g class="cGhhc2UyLihoZWFwX2NsYXNzIC0mZ3Q7IGhlYXBfb2JqKVswXQ=="><path fill="none" stroke="#0d32b2" marker-end="url(#mk-d2-3030410505-3488378134)" d="M599.5 378.5v158" class="connection stroke-B1" mask="url(#d2-3030410505)" style="stroke-width:2"/><text x="599.5" y="464" fill="#676c7e" class="text-italic fill-N2" style="text-anchor:middle;font-size:16px">5.new 对象</text></g><g class="cGhhc2UzLihoZWFwX29iaiAtJmd0OyBnZXRfY2xhc3MpWzBd"><path fill="none" stroke="#0d32b2" marker-end="url(#mk-d2-3030410505-3488378134)" d="M879 370.5v166" class="connection stroke-B1" mask="url(#d2-3030410505)" style="stroke-width:2"/><text x="879.5" y="460" fill="#676c7e" class="text-italic fill-N2" style="text-anchor:middle;font-size:16px">6.对象头→Klass</text></g><g class="cGhhc2UzLihnZXRfY2xhc3MgLSZndDsgaGVhcF9jbGFzcylbMF0="><path fill="none" stroke="#0d32b2" marker-end="url(#mk-d2-3030410505-3488378134)" d="M879 624v165.5" class="connection stroke-B1" mask="url(#d2-3030410505)" style="stroke-width:2"/><text x="879" y="713" fill="#676c7e" class="text-italic fill-N2" style="text-anchor:middle;font-size:16px">7.返回mirror</text></g><g class="cGhhc2UzLihoZWFwX2NsYXNzIC0mZ3Q7IGdldF9tZXRob2RzKVswXQ=="><path fill="none" stroke="#0d32b2" marker-end="url(#mk-d2-3030410505-3488378134)" d="M879 860.5v116" class="connection stroke-B1" mask="url(#d2-3030410505)" style="stroke-width:2"/><text x="879.5" y="925" fill="#676c7e" class="text-italic fill-N2" style="text-anchor:middle;font-size:16px">8.native读取</text></g><g class="cGhhc2UzLihnZXRfbWV0aG9kcyAtJmd0OyBtZXRhKVswXQ=="><path fill="none" stroke="#0d32b2" marker-end="url(#mk-d2-3030410505-3488378134)" d="M879 1063.5c0 46.8 9.2 71.2 43.592 116.806" class="connection stroke-B1" mask="url(#d2-3030410505)" style="stroke-width:2"/><text x="886" y="1134" fill="#676c7e" class="text-italic fill-N2" style="text-anchor:middle;font-size:16px">9.查Method[]</text></g><g class="cGhhc2UzLihpbnZva2UgLSZndDsgbWV0YSlbMF0="><path fill="none" stroke="#0d32b2" marker-end="url(#mk-d2-3030410505-3488378134)" d="M979.634 133.147C1012.1 180.3 1020.5 221.2 1020.5 264.25v706c0 30.45-9.2 164.45-43.592 210.056" class="connection stroke-B1" mask="url(#d2-3030410505)" style="stroke-width:2"/><text x="1021" y="664" fill="#676c7e" class="text-italic fill-N2" style="text-anchor:middle;font-size:16px">10.解释/JIT执行</text></g><g class="cGhhc2UzLihpbnZva2UgLSZndDsgaGVhcF9vYmopWzBd"><path fill="none" stroke="#0d32b2" marker-end="url(#mk-d2-3030410505-3488378134)" d="M919.866 133.147C887.4 180.3 879 214.7 879 299.5" class="connection stroke-B1" mask="url(#d2-3030410505)" style="stroke-width:2"/><text x="879.5" y="217" fill="#676c7e" class="text-italic fill-N2" style="text-anchor:middle;font-size:16px">11.方法体传入receiver</text></g><mask id="d2-3030410505" width="1168" height="1365" x="-23" y="-53" maskUnits="userSpaceOnUse"><path fill="#fff" d="M-23-53h1168v1365H-23z"/><path fill="rgba(0,0,0,0.75)" d="M33.5-21h199v36h-199zM402.5-13h199v36h-199zM848-21h164v36H848zM89.5 72.5h87v37h-87zM63.5 317.5h139v37h-139zM62.5 562.5h141v37h-141zM348.5 313.5h106v69h-106zM559.5 317.5h80v37h-80zM544.5 562.5h111v37h-111zM467.5 80.5h66v21h-66zM800.5 562.5h157v37h-157zM800.5 1002.5h158v37h-158zM872.5 72.5h155v37h-155zM846.5 325.5h65v21h-65zM840.5 815.5h77v21h-77zM931.5 1205.5h36v21h-36z"/><path d="M89 203h89v21H89zM90 448h86v21H90zM389 168h51v21h-51zM547 188h93v21h-93zM559 448h81v21h-81zM822 444h115v21H822zM833 697h92v21h-92zM834 909h91v21h-91zM841 1118h90v21h-90zM960 648h122v21H960zM795 201h169v21H795z"/></mask></svg></svg>