<svg xmlns="http://www.w3.org/2000/svg" data-d2-version="v0.6.9" preserveAspectRatio="xMinYMin meet" viewBox="0 0 3832 247"><svg width="3832" height="247" class="d2-415054459 d2-svg" viewBox="-33 -33 3832 247"><rect width="3832" height="247" x="-33" y="-33" stroke-width="0" rx="0" style="fill:#fff"/><style>.d2-415054459 .text-bold{font-family:&quot;d2-415054459-font-bold&quot;}.d2-415054459 .text-italic{font-family:&quot;d2-415054459-font-italic&quot;}.connection,.shape{stroke-linejoin:round}.shape{shape-rendering:geometricPrecision}.connection{stroke-linecap:round}.d2-415054459 .fill-N1{fill:#0a0f25}.d2-415054459 .fill-N2{fill:#676c7e}.d2-415054459 .fill-B6{fill:#f7f8fe}.d2-415054459 .stroke-B1{stroke:#0d32b2}</style><g class="bG9hZA=="><g class="shape"><circle cx="79" cy="91" r="79" fill="#f7f8fe" stroke="#0d32b2" class="shape stroke-B1 fill-B6" style="stroke-width:2"/></g><text x="79" y="96.5" fill="#0a0f25" class="text-bold fill-N1" style="text-anchor:middle;font-size:16px">加载 Load</text></g><g class="dmVyaWZ5"><g class="shape"><path fill="#f7f8fe" stroke="#0d32b2" d="M644 58h131v66H644z" class="stroke-B1 fill-B6" style="stroke-width:2"/></g><text x="709.5" y="96.5" fill="#0a0f25" class="text-bold fill-N1" style="text-anchor:middle;font-size:16px">验证 Verify</text></g><g class="cHJlcGFyZQ=="><g class="shape"><path fill="#f7f8fe" stroke="#0d32b2" d="M1231 58h144v66h-144z" class="stroke-B1 fill-B6" style="stroke-width:2"/></g><text x="1303" y="96.5" fill="#0a0f25" class="text-bold fill-N1" style="text-anchor:middle;font-size:16px">准备 Prepare</text></g><g class="cmVzb2x2ZQ=="><g class="shape"><path fill="#f7f8fe" stroke="#0d32b2" d="M1812 58h143v66h-143z" class="stroke-B1 fill-B6" style="stroke-width:2"/></g><text x="1883.5" y="96.5" fill="#0a0f25" class="text-bold fill-N1" style="text-anchor:middle;font-size:16px">解析 Resolve</text></g><g class="aW5pdA=="><g class="shape"><path fill="#f7f8fe" stroke="#0d32b2" d="M2408 58h170v66h-170z" class="stroke-B1 fill-B6" style="stroke-width:2"/></g><text x="2493" y="96.5" fill="#0a0f25" class="text-bold fill-N1" style="text-anchor:middle;font-size:16px">初始化 Initialize</text></g><g class="dXNpbmc="><g class="shape"><circle cx="3104.5" cy="90.5" r="82.5" fill="#f7f8fe" stroke="#0d32b2" class="shape stroke-B1 fill-B6" style="stroke-width:2"/></g><text x="3104.5" y="96" fill="#0a0f25" class="text-bold fill-N1" style="text-anchor:middle;font-size:16px">使用 Using</text></g><g class="dW5sb2Fk"><g class="shape"><circle cx="3675.5" cy="90.5" r="90.5" fill="#f7f8fe" stroke="#0d32b2" class="shape stroke-B1 fill-B6" style="stroke-width:2"/></g><text x="3675.5" y="96" fill="#0a0f25" class="text-bold fill-N1" style="text-anchor:middle;font-size:16px">卸载 Unload</text></g><g class="KGxvYWQgLSZndDsgdmVyaWZ5KVswXQ=="><marker id="mk-d2-415054459-3488378134" markerHeight="12" markerUnits="userSpaceOnUse" markerWidth="10" orient="auto" refX="7" refY="6" viewBox="0 0 10 12"><path stroke-width="2" d="m0 0 10 6-10 6z" class="connection" style="fill:#0d32b2"/></marker><path fill="none" stroke="#0d32b2" marker-end="url(#mk-d2-415054459-3488378134)" d="M160 90.996c192.4-.396 289.6-.496 480-.496" class="connection stroke-B1" mask="url(#d2-415054459)" style="stroke-width:2"/><text x="400.5" y="80" fill="#676c7e" class="text-italic fill-N2" style="text-anchor:middle;font-size:16px"><tspan x="400.5" dy="0">① 全限定名找到class文件</tspan><tspan x="400.5" dy="17.667">② 读字节流到内存</tspan><tspan x="400.5" dy="17.667">③ 创建InstanceKlass+Class对象</tspan></text></g><g class="KHZlcmlmeSAtJmd0OyBwcmVwYXJlKVswXQ=="><path fill="none" stroke="#0d32b2" marker-end="url(#mk-d2-415054459-3488378134)" d="M777 90.5h450" class="connection stroke-B1" mask="url(#d2-415054459)" style="stroke-width:2"/><text x="1003.5" y="88" fill="#676c7e" class="text-italic fill-N2" style="text-anchor:middle;font-size:16px"><tspan x="1003.5" dy="0">检查魔数版本号</tspan><tspan x="1003.5" dy="18.5">字节码格式引用合法性</tspan></text></g><g class="KHByZXBhcmUgLSZndDsgcmVzb2x2ZSlbMF0="><path fill="none" stroke="#0d32b2" marker-end="url(#mk-d2-415054459-3488378134)" d="M1376.5 90.5h432" class="connection stroke-B1" mask="url(#d2-415054459)" style="stroke-width:2"/><text x="1594" y="88" fill="#676c7e" class="text-italic fill-N2" style="text-anchor:middle;font-size:16px"><tspan x="1594" dy="0">为静态变量分配内存</tspan><tspan x="1594" dy="18.5">赋零值 不是初始值</tspan></text></g><g class="KHJlc29sdmUgLSZndDsgaW5pdClbMF0="><path fill="none" stroke="#0d32b2" marker-end="url(#mk-d2-415054459-3488378134)" d="M1956.5 90.5h448" class="connection stroke-B1" mask="url(#d2-415054459)" style="stroke-width:2"/><text x="2182" y="88" fill="#676c7e" class="text-italic fill-N2" style="text-anchor:middle;font-size:16px"><tspan x="2182" dy="0">符号引用→直接引用</tspan><tspan x="2182" dy="18.5">类/接口/字段/方法解析</tspan></text></g><g class="KGluaXQgLSZndDsgdXNpbmcpWzBd"><path fill="none" stroke="#0d32b2" marker-end="url(#mk-d2-415054459-3488378134)" d="M2580 90.5c175.6 0 264.4.1 438 .491" class="connection stroke-B1" mask="url(#d2-415054459)" style="stroke-width:2"/><text x="2800.5" y="88" fill="#676c7e" class="text-italic fill-N2" style="text-anchor:middle;font-size:16px"><tspan x="2800.5" dy="0">执行clinit方法</tspan><tspan x="2800.5" dy="18.5">静态变量赋值+静态块</tspan></text></g><g class="KHVzaW5nIC0mZ3Q7IHVubG9hZClbMF0="><path fill="none" stroke="#0d32b2" marker-end="url(#mk-d2-415054459-3488378134)" d="M3189 90.995c157.2-.395 236.8-.395 392-.005" class="connection stroke-B1" mask="url(#d2-415054459)" style="stroke-width:2"/><text x="3386.5" y="88" fill="#676c7e" class="text-italic fill-N2" style="text-anchor:middle;font-size:16px"><tspan x="3386.5" dy="0">所有实例不可达</tspan><tspan x="3386.5" dy="18.5">ClassLoader被GC</tspan></text></g><mask id="d2-415054459" width="3832" height="247" x="-33" y="-33" maskUnits="userSpaceOnUse"><path fill="#fff" d="M-33-33h3832v247H-33z"/><path fill="rgba(0,0,0,0.75)" d="M40 80.5h78v21H40zM666.5 80.5h86v21h-86zM1253.5 80.5h99v21h-99zM1834.5 80.5h98v21h-98zM2430.5 80.5h125v21h-125zM3063 80h83v21h-83zM3628.5 80h94v21h-94z"/><path d="M289 64h223v53H289zM907 72h193v37H907zM1507 72h174v37h-174zM2087 72h190v37h-190zM2710 72h181v37h-181zM3319 72h135v37h-135z"/></mask></svg></svg>