<svg xmlns="http://www.w3.org/2000/svg" data-d2-version="v0.6.9" preserveAspectRatio="xMinYMin meet" viewBox="0 0 3507 881"><svg width="3507" height="881" class="d2-2189220268 d2-svg" viewBox="38 -17 3507 881"><rect width="3507" height="881" x="38" y="-17" stroke-width="0" rx="0" style="fill:#fff"/><style>.d2-2189220268 .text{font-family:&quot;d2-2189220268-font-regular&quot;}.d2-2189220268 .text-bold{font-family:&quot;d2-2189220268-font-bold&quot;}.d2-2189220268 .text-italic{font-family:&quot;d2-2189220268-font-italic&quot;}.connection,.shape{stroke-linejoin:round}.shape{shape-rendering:geometricPrecision}.connection{stroke-linecap:round}.d2-2189220268 .fill-N1{fill:#0a0f25}.d2-2189220268 .fill-N2{fill:#676c7e}.d2-2189220268 .fill-B4{fill:#e3e9fd}.d2-2189220268 .fill-B5{fill:#edf0fd}.d2-2189220268 .fill-AA5,.d2-2189220268 .fill-AB5{fill:#f7f8fe}.d2-2189220268 .stroke-B1{stroke:#0d32b2}</style><g class="ZGlzaw=="><g class="shape"><path fill="#e3e9fd" stroke="#0d32b2" d="M71 128h188v147H71z" class="stroke-B1 fill-B4" style="stroke-width:2"/></g><text x="165" y="115" fill="#0a0f25" class="text fill-N1" style="text-anchor:middle;font-size:28px">📁 磁盘</text></g><g class="bG9hZGVy"><g class="shape"><path fill="#e3e9fd" stroke="#0d32b2" d="M753 131h1056v223H753z" class="stroke-B1 fill-B4" style="stroke-width:2"/></g><text x="1281" y="118" fill="#0a0f25" class="text fill-N1" style="text-anchor:middle;font-size:28px">🔧 类加载器子系统</text></g><g class="cnVudGltZQ=="><g class="shape"><path fill="#e3e9fd" stroke="#0d32b2" d="M2153 56h1359v437H2153z" class="stroke-B1 fill-B4" style="stroke-width:2"/></g><text x="2832.5" y="43" fill="#0a0f25" class="text fill-N1" style="text-anchor:middle;font-size:28px">💾 运行时数据区</text></g><g class="ZXhlYw=="><g class="shape"><path fill="#e3e9fd" stroke="#0d32b2" d="M2805 579h190v252h-190z" class="stroke-B1 fill-B4" style="stroke-width:2"/></g><text x="2900" y="566" fill="#0a0f25" class="text fill-N1" style="text-anchor:middle;font-size:28px">⚡ 执行引擎</text></g><g class="ZGlzay5jbGFzc2ZpbGU="><g class="shape"><path fill="#f7f8fe" stroke="#0d32b2" d="M102 158h106c1 0 2 0 3 1l17 16c1 1 1 2 1 3v67H101v-86c0-1 0-1 1-1Z" class="stroke-B1 fill-AB5" style="stroke-width:2"/><path fill="#f7f8fe" stroke="#0d32b2" d="M228 245H102c-1 0-1 0-1-1v-85c0-1 0-1 1-1h105c1 0 1 0 1 1v17c0 1 1 2 2 2h18c1 0 1 0 1 1v65c-1 1 0 1-1 1Z" class="stroke-B1 fill-AB5" style="stroke-width:2"/></g><text x="165" y="207" fill="#0a0f25" class="text-bold fill-N1" style="text-anchor:middle;font-size:16px">.class 文件</text></g><g class="bG9hZGVyLmxvYWRpbmc="><g class="shape"><path fill="#edf0fd" stroke="#0d32b2" d="M783 161h124v82H783z" class="stroke-B1 fill-B5" style="stroke-width:2"/></g><text x="845" y="199.5" fill="#0a0f25" class="text-bold fill-N1" style="text-anchor:middle;font-size:16px"><tspan x="845" dy="0">加载</tspan><tspan x="845" dy="18.5">读字节流</tspan></text></g><g class="bG9hZGVyLmxpbmtpbmc="><g class="shape"><path fill="#edf0fd" stroke="#0d32b2" d="M1109 185h182v82h-182z" class="stroke-B1 fill-B5" style="stroke-width:2"/></g><text x="1200" y="223.5" fill="#0a0f25" class="text-bold fill-N1" style="text-anchor:middle;font-size:16px"><tspan x="1200" dy="0">链接</tspan><tspan x="1200" dy="18.5">验证+准备+解析</tspan></text></g><g class="bG9hZGVyLmluaXQ="><g class="shape"><path fill="#edf0fd" stroke="#0d32b2" d="M1655 242h124v82h-124z" class="stroke-B1 fill-B5" style="stroke-width:2"/></g><text x="1717" y="280.5" fill="#0a0f25" class="text-bold fill-N1" style="text-anchor:middle;font-size:16px"><tspan x="1717" dy="0">初始化</tspan><tspan x="1717" dy="18.5">执行 clinit</tspan></text></g><g class="cnVudGltZS5tZXRh"><g class="shape"><path fill="#f7f8fe" stroke="#0d32b2" d="M2183 110c0-24 96-24 107-24s107 0 107 24v102c0 24-96 24-107 24s-107 0-107-24z" class="stroke-B1 fill-AA5" style="stroke-width:2"/><path fill="#f7f8fe" stroke="#0d32b2" d="M2183 110c0 24 96 24 107 24s107 0 107-24" class="stroke-B1 fill-AA5" style="stroke-width:2"/></g><text x="2290" y="162.5" fill="#0a0f25" class="text-bold fill-N1" style="text-anchor:middle;font-size:16px"><tspan x="2290" dy="0">Metaspace</tspan><tspan x="2290" dy="17.667">Klass模型</tspan><tspan x="2290" dy="17.667">常量池+方法字节码</tspan></text></g><g class="cnVudGltZS5oZWFw"><g class="shape"><path fill="#f7f8fe" stroke="#0d32b2" d="M2228 337c0-24 56-24 62-24s62 0 62 24v102c0 24-56 24-62 24s-62 0-62-24z" class="stroke-B1 fill-AA5" style="stroke-width:2"/><path fill="#f7f8fe" stroke="#0d32b2" d="M2228 337c0 24 56 24 62 24s62 0 62-24" class="stroke-B1 fill-AA5" style="stroke-width:2"/></g><text x="2290" y="389.5" fill="#0a0f25" class="text-bold fill-N1" style="text-anchor:middle;font-size:16px"><tspan x="2290" dy="0">Heap</tspan><tspan x="2290" dy="17.667">Class对象</tspan><tspan x="2290" dy="17.667">实例对象</tspan></text></g><g class="cnVudGltZS5zdGFjaw=="><g class="shape"><path fill="#edf0fd" stroke="#0d32b2" d="M3268 242h214v82h-214z" class="stroke-B1 fill-B5" style="stroke-width:2"/></g><text x="3375" y="280.5" fill="#0a0f25" class="text-bold fill-N1" style="text-anchor:middle;font-size:16px"><tspan x="3375" dy="0">虚拟机栈</tspan><tspan x="3375" dy="18.5">局部变量+操作数栈</tspan></text></g><g class="ZXhlYy5pbnRlcnByZXRlcg=="><g class="shape"><path fill="#edf0fd" stroke="#0d32b2" d="M2848 609h104v66h-104z" class="stroke-B1 fill-B5" style="stroke-width:2"/></g><text x="2900" y="647.5" fill="#0a0f25" class="text-bold fill-N1" style="text-anchor:middle;font-size:16px">解释器</text></g><g class="ZXhlYy5qaXQ="><g class="shape"><path fill="#edf0fd" stroke="#0d32b2" d="M2835 735h130v66h-130z" class="stroke-B1 fill-B5" style="stroke-width:2"/></g><text x="2900" y="773.5" fill="#0a0f25" class="text-bold fill-N1" style="text-anchor:middle;font-size:16px">JIT 编译器</text></g><g class="bG9hZGVyLihsb2FkaW5nIC0mZ3Q7IGxpbmtpbmcpWzBd"><marker id="mk-d2-2189220268-3488378134" markerHeight="12" markerUnits="userSpaceOnUse" markerWidth="10" orient="auto" refX="7" refY="6" viewBox="0 0 10 12"><path stroke-width="2" d="m0 0 10 6-10 6z" class="connection" style="fill:#0d32b2"/></marker><path fill="none" stroke="#0d32b2" marker-end="url(#mk-d2-2189220268-3488378134)" d="M908.978 211.544C987.8 223.25 1028.2 226.25 1105 226.25" class="connection stroke-B1" mask="url(#d2-2189220268)" style="stroke-width:2"/></g><g class="bG9hZGVyLihsaW5raW5nIC0mZ3Q7IGluaXQpWzBd"><path fill="none" stroke="#0d32b2" marker-end="url(#mk-d2-2189220268-3488378134)" d="M1292.958 244.909C1436.6 274.9 1509.4 282.5 1651 282.5" class="connection stroke-B1" mask="url(#d2-2189220268)" style="stroke-width:2"/></g><g class="KGRpc2suY2xhc3NmaWxlIC0mZ3Q7IGxvYWRlci5sb2FkaW5nKVswXQ=="><path fill="none" stroke="#0d32b2" marker-end="url(#mk-d2-2189220268-3488378134)" d="M231 201.99c78.8-.39 134.2-.49 187-.49h361" class="connection stroke-B1" mask="url(#d2-2189220268)" style="stroke-width:2"/><text x="506" y="207" fill="#676c7e" class="text-italic fill-N2" style="text-anchor:middle;font-size:16px">ClassLoader.readClass</text></g><g class="KGxvYWRlci5sb2FkaW5nIC0mZ3Q7IHJ1bnRpbWUubWV0YSlbMF0="><path fill="none" stroke="#0d32b2" marker-end="url(#mk-d2-2189220268-3488378134)" d="M908.834 173.201C987.8 138.8 1046.4 130 1104 130h826.5c30.3 0 171.7 3 248.543 14.412" class="connection stroke-B1" mask="url(#d2-2189220268)" style="stroke-width:2"/><text x="1541.5" y="136" fill="#676c7e" class="text-italic fill-N2" style="text-anchor:middle;font-size:16px">生成 InstanceKlass</text></g><g class="KGxvYWRlci5sb2FkaW5nIC0mZ3Q7IHJ1bnRpbWUuaGVhcClbMF0="><path fill="none" stroke="#0d32b2" marker-end="url(#mk-d2-2189220268-3488378134)" d="M882.253 245C982.586 358.7 1046.4 387.5 1104 387.5h826.5c30.3 0 180.7-.1 293.5-.486" class="connection stroke-B1" mask="url(#d2-2189220268)" style="stroke-width:2"/><text x="1525" y="393" fill="#676c7e" class="text-italic fill-N2" style="text-anchor:middle;font-size:16px">创建 mirror Class 对象</text></g><g class="KGxvYWRlci5saW5raW5nIC0mZ3Q7IHJ1bnRpbWUubWV0YSlbMF0="><path fill="none" stroke="#0d32b2" marker-end="url(#mk-d2-2189220268-3488378134)" d="M1292.978 212.457C1436.6 191.15 1521.8 185.75 1595 185.75h335.5c30.3 0 171.7-2.35 248.527-11.288" class="connection stroke-B1" mask="url(#d2-2189220268)" style="stroke-width:2"/></g><g class="KGxvYWRlci5pbml0IC0mZ3Q7IHJ1bnRpbWUubWV0YSlbMF0="><path fill="none" stroke="#0d32b2" marker-end="url(#mk-d2-2189220268-3488378134)" d="M1781 282.5h149.5c30.3 0 172.7-12.3 254.04-59.493" class="connection stroke-B1" mask="url(#d2-2189220268)" style="stroke-width:2"/></g><g class="KHJ1bnRpbWUubWV0YSAtJmd0OyBleGVjLmludGVycHJldGVyKVswXQ=="><path fill="none" stroke="#0d32b2" marker-end="url(#mk-d2-2189220268-3488378134)" d="M2398.976 144.692C2531.8 124 2764.901 216.7 2887.306 604.685" class="connection stroke-B1" mask="url(#d2-2189220268)" style="stroke-width:2"/><text x="2768.5" y="233" fill="#676c7e" class="text-italic fill-N2" style="text-anchor:middle;font-size:16px">读取方法字节码</text></g><g class="KHJ1bnRpbWUubWV0YSAtJmd0OyBleGVjLmppdClbMF0="><path fill="none" stroke="#0d32b2" marker-end="url(#mk-d2-2189220268-3488378134)" d="M2392.72 222.022C2530.6 304 2764.437 406.7 2884.8 730.75" class="connection stroke-B1" mask="url(#d2-2189220268)" style="stroke-width:2"/><text x="2733" y="399" fill="#676c7e" class="text-italic fill-N2" style="text-anchor:middle;font-size:16px">热点方法编译</text></g><g class="KGV4ZWMuaW50ZXJwcmV0ZXIgLSZndDsgcnVudGltZS5zdGFjaylbMF0="><path fill="none" stroke="#0d32b2" marker-end="url(#mk-d2-2189220268-3488378134)" d="M2954 641.5c89.2 0 233.2-386.5 310.043-375.088" class="connection stroke-B1" mask="url(#d2-2189220268)" style="stroke-width:2"/></g><g class="KGV4ZWMuaml0IC0mZ3Q7IHJ1bnRpbWUuc3RhY2spWzBd"><path fill="none" stroke="#0d32b2" marker-end="url(#mk-d2-2189220268-3488378134)" d="M2967 767.5c78.8 0 220.2-457.5 297.043-468.912" class="connection stroke-B1" mask="url(#d2-2189220268)" style="stroke-width:2"/></g><mask id="d2-2189220268" width="3507" height="881" x="38" y="-17" maskUnits="userSpaceOnUse"><path fill="#fff" d="M38-17h3507v881H38z"/><path fill="rgba(0,0,0,0.75)" d="M110.5 87h109v36h-109zM1136.5 90h289v36h-289zM2706 15h253v36h-253zM2809.5 538h181v36h-181zM123.5 191h83v21h-83zM805.5 183.5h79v37h-79zM1131.5 207.5h137v37h-137zM1677.5 264.5h79v37h-79zM2205.5 146.5h169v53h-169zM2250.5 373.5h79v53h-79zM3290.5 264.5h169v37h-169zM2870.5 631.5h59v21h-59zM2857.5 757.5h85v21h-85z"/><path d="M431 191h150v21H431zM1475 120h133v21h-133zM1444 377h162v21h-162zM2701 217h135v21h-135zM2675 383h116v21h-116z"/></mask></svg></svg>