<svg xmlns="http://www.w3.org/2000/svg" data-d2-version="v0.6.9" preserveAspectRatio="xMinYMin meet" viewBox="0 0 1791 469"><svg width="1791" height="469" class="d2-1814037309 d2-svg" viewBox="-33 -33 1791 469"><rect width="1791" height="469" x="-33" y="-33" stroke-width="0" rx="0" style="fill:#fff"/><style>.d2-1814037309 .text-bold{font-family:&quot;d2-1814037309-font-bold&quot;}.d2-1814037309 .text-italic{font-family:&quot;d2-1814037309-font-italic&quot;}.connection,.shape{stroke-linejoin:round}.shape{shape-rendering:geometricPrecision}.connection{stroke-linecap:round}.d2-1814037309 .fill-N1{fill:#0a0f25}.d2-1814037309 .fill-N2{fill:#676c7e}.d2-1814037309 .fill-B6{fill:#f7f8fe}.d2-1814037309 .stroke-B1{stroke:#0d32b2}</style><g class="aWs="><g class="shape"><path fill="#f7f8fe" stroke="#0d32b2" d="M1022 0h154v82h-154z" class="stroke-B1 fill-B6" style="stroke-width:2"/></g><text x="1099" y="38.5" fill="#0a0f25" class="text-bold fill-N1" style="text-anchor:middle;font-size:16px"><tspan x="1099" dy="0">InstanceKlass</tspan><tspan x="1099" dy="18.5">(在 Metaspace)</tspan></text></g><g class="Y3A="><g class="shape"><path fill="#f7f8fe" stroke="#0d32b2" d="M0 254h216v98H0z" class="stroke-B1 fill-B6" style="stroke-width:2"/></g><text x="108" y="292.5" fill="#0a0f25" class="text-bold fill-N1" style="text-anchor:middle;font-size:16px"><tspan x="108" dy="0">常量池</tspan><tspan x="108" dy="17.667">ConstantPool</tspan><tspan x="108" dy="17.667">符号引用→直接引用</tspan></text></g><g class="bWV0aG9kcw=="><g class="shape"><path fill="#f7f8fe" stroke="#0d32b2" d="M276 254h242v98H276z" class="stroke-B1 fill-B6" style="stroke-width:2"/></g><text x="397" y="292.5" fill="#0a0f25" class="text-bold fill-N1" style="text-anchor:middle;font-size:16px"><tspan x="397" dy="0">方法数组</tspan><tspan x="397" dy="17.667">Method+ConstMethod</tspan><tspan x="397" dy="17.667">字节码+行号表+异常表</tspan></text></g><g class="ZmllbGRz"><g class="shape"><path fill="#f7f8fe" stroke="#0d32b2" d="M578 254h291v98H578z" class="stroke-B1 fill-B6" style="stroke-width:2"/></g><text x="723.5" y="292.5" fill="#0a0f25" class="text-bold fill-N1" style="text-anchor:middle;font-size:16px"><tspan x="723.5" dy="0">字段数组</tspan><tspan x="723.5" dy="17.667">FieldInfo</tspan><tspan x="723.5" dy="17.667">名称+类型+偏移量+访问标志</tspan></text></g><g class="YW5ub3RhdGlvbnM="><g class="shape"><path fill="#f7f8fe" stroke="#0d32b2" d="M929 262h145v82H929z" class="stroke-B1 fill-B6" style="stroke-width:2"/></g><text x="1001.5" y="300.5" fill="#0a0f25" class="text-bold fill-N1" style="text-anchor:middle;font-size:16px"><tspan x="1001.5" dy="0">注解元数据</tspan><tspan x="1001.5" dy="18.5">Annotations</tspan></text></g><g class="dnRhYmxl"><g class="shape"><path fill="#f7f8fe" stroke="#0d32b2" d="M1134 254h124v98h-124z" class="stroke-B1 fill-B6" style="stroke-width:2"/></g><text x="1196" y="292.5" fill="#0a0f25" class="text-bold fill-N1" style="text-anchor:middle;font-size:16px"><tspan x="1196" dy="0">虚方法表</tspan><tspan x="1196" dy="17.667">vtable</tspan><tspan x="1196" dy="17.667">动态分派</tspan></text></g><g class="aXRhYmxl"><g class="shape"><path fill="#f7f8fe" stroke="#0d32b2" d="M1318 262h145v82h-145z" class="stroke-B1 fill-B6" style="stroke-width:2"/></g><text x="1390.5" y="300.5" fill="#0a0f25" class="text-bold fill-N1" style="text-anchor:middle;font-size:16px"><tspan x="1390.5" dy="0">接口方法表</tspan><tspan x="1390.5" dy="18.5">itable</tspan></text></g><g class="bWlycm9y"><g class="shape"><circle cx="1625" cy="303" r="100" fill="#f7f8fe" stroke="#0d32b2" class="shape stroke-B1 fill-B6" style="stroke-width:2"/></g><text x="1625" y="300.5" fill="#0a0f25" class="text-bold fill-N1" style="text-anchor:middle;font-size:16px"><tspan x="1625" dy="0">java.lang.Class</tspan><tspan x="1625" dy="18.5">(在 Heap)</tspan></text></g><g class="KGlrIC0mZ3Q7IGNwKVswXQ=="><marker id="mk-d2-1814037309-3488378134" markerHeight="12" markerUnits="userSpaceOnUse" markerWidth="10" orient="auto" refX="7" refY="6" viewBox="0 0 10 12"><path stroke-width="2" d="m0 0 10 6-10 6z" class="connection" style="fill:#0d32b2"/></marker><path fill="none" stroke="#0d32b2" marker-end="url(#mk-d2-1814037309-3488378134)" d="M1019.76 49.092C290.75 123.777 108 164.9 108 250.5" class="connection stroke-B1" mask="url(#d2-1814037309)" style="stroke-width:2"/></g><g class="KGlrIC0mZ3Q7IG1ldGhvZHMpWzBd"><path fill="none" stroke="#0d32b2" marker-end="url(#mk-d2-1814037309-3488378134)" d="M1019.77 52.423C521.95 124.427 397 164.9 397 250.5" class="connection stroke-B1" mask="url(#d2-1814037309)" style="stroke-width:2"/></g><g class="KGlrIC0mZ3Q7IGZpZWxkcylbMF0="><path fill="none" stroke="#0d32b2" marker-end="url(#mk-d2-1814037309-3488378134)" d="M1019.82 62.35C783.15 126.364 723.5 164.9 723.5 250.5" class="connection stroke-B1" mask="url(#d2-1814037309)" style="stroke-width:2"/></g><g class="KGlrIC0mZ3Q7IGFubm90YXRpb25zKVswXQ=="><path fill="none" stroke="#0d32b2" marker-end="url(#mk-d2-1814037309-3488378134)" d="M1058.122 82.95C1013.1 130.3 1001.5 166.5 1001.5 258.5" class="connection stroke-B1" mask="url(#d2-1814037309)" style="stroke-width:2"/></g><g class="KGlrIC0mZ3Q7IHZ0YWJsZSlbMF0="><path fill="none" stroke="#0d32b2" marker-end="url(#mk-d2-1814037309-3488378134)" d="M1139.378 82.95C1184.4 130.3 1196 164.9 1196 250.5" class="connection stroke-B1" mask="url(#d2-1814037309)" style="stroke-width:2"/></g><g class="KGlrIC0mZ3Q7IGl0YWJsZSlbMF0="><path fill="none" stroke="#0d32b2" marker-end="url(#mk-d2-1814037309-3488378134)" d="M1177.388 68.159C1347.5 127.5 1390.5 166.5 1390.5 258.5" class="connection stroke-B1" mask="url(#d2-1814037309)" style="stroke-width:2"/></g><g class="KGlrIC0mZ3Q7IG1pcnJvcilbMF0="><path fill="none" stroke="#0d32b2" marker-end="url(#mk-d2-1814037309-3488378134)" d="M1177.702 58.934C1478.15 125.7 1559.8 156.4 1582.404 208.332" class="connection stroke-B1" mask="url(#d2-1814037309)" style="stroke-width:2"/><text x="1399" y="114" fill="#676c7e" class="text-italic fill-N2" style="text-anchor:middle;font-size:16px">_java_mirror 指针</text></g><g class="KG1pcnJvciAtJmd0OyBpaylbMF0="><path fill="none" stroke="#0d32b2" marker-end="url(#mk-d2-1814037309-3488378134)" d="M1665.808 209.17c23.392-52.97-74.358-84.27-485.614-154.001" class="connection stroke-B1" mask="url(#d2-1814037309)" style="stroke-width:2"/><text x="1463.5" y="109" fill="#676c7e" class="text-italic fill-N2" style="text-anchor:middle;font-size:16px">klass 指针</text></g><mask id="d2-1814037309" width="1791" height="469" x="-33" y="-33" maskUnits="userSpaceOnUse"><path fill="#fff" d="M-33-33h1791v469H-33z"/><path fill="rgba(0,0,0,0.75)" d="M1044.5 22.5h109v37h-109zM22.5 276.5h171v53h-171zM298.5 276.5h197v53h-197zM600.5 276.5h246v53h-246zM951.5 284.5h100v37h-100zM1156.5 276.5h79v53h-79zM1340.5 284.5h100v37h-100zM1571 284.5h108v37h-108z"/><path d="M1335 98h128v21h-128z"/><path d="M1426 93h75v21h-75z"/></mask></svg></svg>