<svg xmlns="http://www.w3.org/2000/svg" data-d2-version="v0.6.9" preserveAspectRatio="xMinYMin meet" viewBox="0 0 1649 312"><svg width="1649" height="312" class="d2-718297662 d2-svg" viewBox="-33 -33 1649 312"><rect width="1649" height="312" x="-33" y="-33" stroke-width="0" rx="0" style="fill:#fff"/><style>.d2-718297662 .text-bold{font-family:&quot;d2-718297662-font-bold&quot;}.d2-718297662 .text-italic{font-family:&quot;d2-718297662-font-italic&quot;}.connection,.shape{stroke-linejoin:round}.shape{shape-rendering:geometricPrecision}.connection{stroke-linecap:round}.d2-718297662 .fill-N1{fill:#0a0f25}.d2-718297662 .fill-N2{fill:#676c7e}.d2-718297662 .fill-N4{fill:#cfd2dd}.d2-718297662 .fill-B6{fill:#f7f8fe}.d2-718297662 .stroke-B1{stroke:#0d32b2}</style><g class="YWxsb2M="><g class="shape"><path fill="#f7f8fe" stroke="#0d32b2" d="M0 77h163v82H0z" class="stroke-B1 fill-B6" style="stroke-width:2"/></g><text x="81.5" y="115.5" fill="#0a0f25" class="text-bold fill-N1" style="text-anchor:middle;font-size:16px"><tspan x="81.5" dy="0">类加载</tspan><tspan x="81.5" dy="18.5">分配 Metaspace</tspan></text></g><g class="ZnVsbA=="><g class="shape"><path fill="#cfd2dd" stroke="#0d32b2" d="M406 164h-3l-139-45c-1 0-1-1 0-2l139-45h5l139 45c1 0 1 1 0 2l-138 45z" class="stroke-B1 fill-N4" style="stroke-width:2"/></g><text x="406" y="123.5" fill="#0a0f25" class="text-bold fill-N1" style="text-anchor:middle;font-size:16px">可用空间不足?</text></g><g class="Z2M="><g class="shape"><path fill="#f7f8fe" stroke="#0d32b2" d="M688 21h165v82H688z" class="stroke-B1 fill-B6" style="stroke-width:2"/></g><text x="770.5" y="59.5" fill="#0a0f25" class="text-bold fill-N1" style="text-anchor:middle;font-size:16px"><tspan x="770.5" dy="0">Full GC</tspan><tspan x="770.5" dy="18.5">回收类元数据</tspan></text></g><g class="dGhyZXNob2xk"><g class="shape"><path fill="#cfd2dd" stroke="#0d32b2" d="M1118 124h-2L993 63c-1-1-1-2 0-2l123-61c1-1 3-1 5 0l123 60c1 1 1 2 0 2l-124 62z" class="stroke-B1 fill-N4" style="stroke-width:2"/></g><text x="1118" y="59.5" fill="#0a0f25" class="text-bold fill-N1" style="text-anchor:middle;font-size:16px"><tspan x="1118" dy="0">低于</tspan><tspan x="1118" dy="18.5">MetaspaceSize?</tspan></text></g><g class="cmVzaXpl"><g class="shape"><path fill="#f7f8fe" stroke="#0d32b2" d="M1364 1h219v82h-219z" class="stroke-B1 fill-B6" style="stroke-width:2"/></g><text x="1473.5" y="39.5" fill="#0a0f25" class="text-bold fill-N1" style="text-anchor:middle;font-size:16px"><tspan x="1473.5" dy="0">提高 MetaspaceSize</tspan><tspan x="1473.5" dy="18.5">新值=old+MinFreeRatio</tspan></text></g><g class="b2s="><g class="shape"><circle cx="1473.5" cy="194.5" r="51.5" fill="#f7f8fe" stroke="#0d32b2" class="shape stroke-B1 fill-B6" style="stroke-width:2"/></g><text x="1473.5" y="200" fill="#0a0f25" class="text-bold fill-N1" style="text-anchor:middle;font-size:16px">继续</text></g><g class="KGFsbG9jIC0mZ3Q7IGZ1bGwpWzBd"><marker id="mk-d2-718297662-3488378134" markerHeight="12" markerUnits="userSpaceOnUse" markerWidth="10" orient="auto" refX="7" refY="6" viewBox="0 0 10 12"><path stroke-width="2" d="m0 0 10 6-10 6z" class="connection" style="fill:#0d32b2"/></marker><path fill="none" stroke="#0d32b2" marker-end="url(#mk-d2-718297662-3488378134)" d="M165 117.75c38 0 58 .05 94 .23" class="connection stroke-B1" mask="url(#d2-718297662)" style="stroke-width:2"/></g><g class="KGZ1bGwgLSZndDsgZ2MpWzBd"><path fill="none" stroke="#0d32b2" marker-end="url(#mk-d2-718297662-3488378134)" d="M485.936 96.496C591.6 69 632.5 62 684.5 62" class="connection stroke-B1" mask="url(#d2-718297662)" style="stroke-width:2"/><text x="584.5" y="76" fill="#676c7e" class="text-italic fill-N2" style="text-anchor:middle;font-size:16px">不足</text></g><g class="KGZ1bGwgLSZndDsgb2spWzBd"><path fill="none" stroke="#0d32b2" marker-end="url(#mk-d2-718297662-3488378134)" d="M470.833 144.8C588.6 196.2 648.9 209.25 694.5 209.25h325.75c58.65 0 307.35-2.25 397.768-10.87" class="connection stroke-B1" mask="url(#d2-718297662)" style="stroke-width:2"/><text x="939.5" y="215" fill="#676c7e" class="text-italic fill-N2" style="text-anchor:middle;font-size:16px">充足</text></g><g class="KGdjIC0mZ3Q7IHRocmVzaG9sZClbMF0="><path fill="none" stroke="#0d32b2" marker-end="url(#mk-d2-718297662-3488378134)" d="M854.5 62H988" class="connection stroke-B1" mask="url(#d2-718297662)" style="stroke-width:2"/></g><g class="KHRocmVzaG9sZCAtJmd0OyByZXNpemUpWzBd"><path fill="none" stroke="#0d32b2" marker-end="url(#mk-d2-718297662-3488378134)" d="M1226.986 50.761C1288.2 43.4 1316 41.5 1360 41.5" class="connection stroke-B1" mask="url(#d2-718297662)" style="stroke-width:2"/><text x="1294" y="48" fill="#676c7e" class="text-italic fill-N2" style="text-anchor:middle;font-size:16px">是</text></g><g class="KHRocmVzaG9sZCAtJmd0OyBvaylbMF0="><path fill="none" stroke="#0d32b2" marker-end="url(#mk-d2-718297662-3488378134)" d="M1189.847 90.768C1280.8 128.6 1328.2 146.2 1421.2 176.752" class="connection stroke-B1" mask="url(#d2-718297662)" style="stroke-width:2"/><text x="1305" y="143" fill="#676c7e" class="text-italic fill-N2" style="text-anchor:middle;font-size:16px">否</text></g><mask id="d2-718297662" width="1649" height="312" x="-33" y="-33" maskUnits="userSpaceOnUse"><path fill="#fff" d="M-33-33h1649v312H-33z"/><path fill="rgba(0,0,0,0.75)" d="M22.5 99.5h118v37h-118zM342 107.5h128v21H342zM710.5 43.5h120v37h-120zM1062.5 43.5h111v37h-111zM1386.5 23.5h174v37h-174zM1454 184h39v21h-39z"/><path d="M565 60h39v21h-39zM920 199h39v21h-39zM1284 32h20v21h-20zM1295 127h20v21h-20z"/></mask></svg></svg>