<svg xmlns="http://www.w3.org/2000/svg" data-d2-version="v0.6.9" preserveAspectRatio="xMinYMin meet" viewBox="0 0 1453 783"><svg width="1453" height="783" class="d2-9991769 d2-svg" viewBox="-57 -53 1453 783"><rect width="1453" height="783" x="-57" y="-53" stroke-width="0" rx="0" style="fill:#fff"/><style>.d2-9991769 .text{font-family:&quot;d2-9991769-font-regular&quot;}.d2-9991769 .text-bold{font-family:&quot;d2-9991769-font-bold&quot;}.connection,.shape{stroke-linejoin:round}.shape{shape-rendering:geometricPrecision}.connection{stroke-linecap:round}.d2-9991769 .fill-N1{fill:#0a0f25}.d2-9991769 .fill-B4{fill:#e3e9fd}.d2-9991769 .fill-B5{fill:#edf0fd}.d2-9991769 .stroke-B1{stroke:#0d32b2}</style><g class="bmF0aXZlX21lbQ=="><g class="shape"><path fill="#e3e9fd" stroke="#0d32b2" d="M10 307h296v382H10z" class="stroke-B1 fill-B4" style="stroke-width:2"/></g><text x="158" y="294" fill="#0a0f25" class="text fill-N1" style="text-anchor:middle;font-size:28px">🖥️ 本地内存 Native Memory</text></g><g class="Y29udGVudA=="><g class="shape"><path fill="#e3e9fd" stroke="#0d32b2" d="M346 539h1017v158H346z" class="stroke-B1 fill-B4" style="stroke-width:2"/></g><text x="854.5" y="526" fill="#0a0f25" class="text fill-N1" style="text-anchor:middle;font-size:28px">📦 Metaspace 内容</text></g><g class="aGVhcA=="><g class="shape"><path fill="#e3e9fd" stroke="#0d32b2" d="M91 20h185v126H91z" class="stroke-B1 fill-B4" style="stroke-width:2"/></g><text x="183.5" y="7" fill="#0a0f25" class="text fill-N1" style="text-anchor:middle;font-size:28px">📦 Heap</text></g><g class="bmF0aXZlX21lbS5tZXRh"><g class="shape"><path fill="#edf0fd" stroke="#0d32b2" d="M91 337h185v82H91z" class="stroke-B1 fill-B5" style="stroke-width:2"/></g><text x="183.5" y="375.5" fill="#0a0f25" class="text-bold fill-N1" style="text-anchor:middle;font-size:16px"><tspan x="183.5" dy="0">Metaspace</tspan><tspan x="183.5" dy="18.5">类元数据总空间</tspan></text></g><g class="bmF0aXZlX21lbS5jYw=="><g class="shape"><path fill="#edf0fd" stroke="#0d32b2" d="M40 577h226v82H40z" class="stroke-B1 fill-B5" style="stroke-width:2"/></g><text x="153" y="615.5" fill="#0a0f25" class="text-bold fill-N1" style="text-anchor:middle;font-size:16px"><tspan x="153" dy="0">CompressedClassSpace</tspan><tspan x="153" dy="18.5">压缩指针时单独分配</tspan></text></g><g class="Y29udGVudC5pa19zdG9yZQ=="><g class="shape"><path fill="#edf0fd" stroke="#0d32b2" d="M376 577h185v82H376z" class="stroke-B1 fill-B5" style="stroke-width:2"/></g><text x="468.5" y="615.5" fill="#0a0f25" class="text-bold fill-N1" style="text-anchor:middle;font-size:16px"><tspan x="468.5" dy="0">InstanceKlass 实例</tspan><tspan x="468.5" dy="18.5">每个类一个</tspan></text></g><g class="Y29udGVudC5jcF9zdG9yZQ=="><g class="shape"><path fill="#edf0fd" stroke="#0d32b2" d="M621 577h165v82H621z" class="stroke-B1 fill-B5" style="stroke-width:2"/></g><text x="703.5" y="615.5" fill="#0a0f25" class="text-bold fill-N1" style="text-anchor:middle;font-size:16px"><tspan x="703.5" dy="0">ConstantPool</tspan><tspan x="703.5" dy="18.5">运行时常量池</tspan></text></g><g class="Y29udGVudC5tZXRob2Rfc3RvcmU="><g class="shape"><path fill="#edf0fd" stroke="#0d32b2" d="M846 577h145v82H846z" class="stroke-B1 fill-B5" style="stroke-width:2"/></g><text x="918.5" y="615.5" fill="#0a0f25" class="text-bold fill-N1" style="text-anchor:middle;font-size:16px"><tspan x="918.5" dy="0">ConstMethod</tspan><tspan x="918.5" dy="18.5">方法字节码</tspan></text></g><g class="Y29udGVudC5zeW1ib2xfc3RvcmU="><g class="shape"><path fill="#edf0fd" stroke="#0d32b2" d="M1051 569h282v98h-282z" class="stroke-B1 fill-B5" style="stroke-width:2"/></g><text x="1192" y="607.5" fill="#0a0f25" class="text-bold fill-N1" style="text-anchor:middle;font-size:16px"><tspan x="1192" dy="0">Symbol 表</tspan><tspan x="1192" dy="17.667">UTF-8常量</tspan><tspan x="1192" dy="17.667">类名/方法名/字段名/描述符</tspan></text></g><g class="aGVhcC5taXJyb3Jfb2Jq"><g class="shape"><path fill="#edf0fd" stroke="#0d32b2" d="M121 50h125v66H121z" class="stroke-B1 fill-B5" style="stroke-width:2"/></g><text x="183.5" y="88.5" fill="#0a0f25" class="text-bold fill-N1" style="text-anchor:middle;font-size:16px">Class 对象</text></g><g class="KG5hdGl2ZV9tZW0ubWV0YSAtJmd0OyBjb250ZW50LmlrX3N0b3JlKVswXQ=="><marker id="mk-d2-9991769-3488378134" markerHeight="12" markerUnits="userSpaceOnUse" markerWidth="10" orient="auto" refX="7" refY="6" viewBox="0 0 10 12"><path stroke-width="2" d="m0 0 10 6-10 6z" class="connection" style="fill:#0d32b2"/></marker><path fill="none" stroke="#0d32b2" marker-end="url(#mk-d2-9991769-3488378134)" d="M178.762 420.986C174.2 459 213.55 532.596 371.958 585.71" class="connection stroke-B1" mask="url(#d2-9991769)" style="stroke-width:2"/></g><g class="KG5hdGl2ZV9tZW0ubWV0YSAtJmd0OyBjb250ZW50LmNwX3N0b3JlKVswXQ=="><path fill="none" stroke="#0d32b2" marker-end="url(#mk-d2-9991769-3488378134)" d="M188.199 420.99C192 459 278.55 535.598 616.823 601.231" class="connection stroke-B1" mask="url(#d2-9991769)" style="stroke-width:2"/></g><g class="KG5hdGl2ZV9tZW0ubWV0YSAtJmd0OyBjb250ZW50Lm1ldGhvZF9zdG9yZSlbMF0="><path fill="none" stroke="#0d32b2" marker-end="url(#mk-d2-9991769-3488378134)" d="M209.554 420.7C233.3 459 360.75 536.685 841.792 606.848" class="connection stroke-B1" mask="url(#d2-9991769)" style="stroke-width:2"/></g><g class="KG5hdGl2ZV9tZW0ubWV0YSAtJmd0OyBjb250ZW50LnN5bWJvbF9zdG9yZSlbMF0="><path fill="none" stroke="#0d32b2" marker-end="url(#mk-d2-9991769-3488378134)" d="M218.786 420.531C251.1 459 417.75 535.805 1046.772 602.604" class="connection stroke-B1" mask="url(#d2-9991769)" style="stroke-width:2"/></g><g class="bmF0aXZlX21lbS4obWV0YSAtJmd0OyBjYylbMF0="><path fill="none" stroke="#0d32b2" marker-end="url(#mk-d2-9991769-3488378134)" d="M169.356 420.894C156.4 459 153 530.6 153 573" class="connection stroke-B1" mask="url(#d2-9991769)" style="stroke-width:2"/></g><g class="KGhlYXAubWlycm9yX29iaiAtJmd0OyBuYXRpdmVfbWVtLm1ldGEpWzBd"><path fill="none" stroke="#0d32b2" marker-end="url(#mk-d2-9991769-3488378134)" d="M183.25 118v215" class="connection stroke-B1" mask="url(#d2-9991769)" style="stroke-width:2"/><text x="183" y="232" style="font-family:&quot;d2-9991769-font-italic&quot;;fill:#676c7e;text-anchor:middle;font-size:16px">_java_mirror</text></g><mask id="d2-9991769" width="1453" height="783" x="-57" y="-53" maskUnits="userSpaceOnUse"><path fill="#fff" d="M-57-53h1453v783H-57z"/><path fill="rgba(0,0,0,0.75)" d="M-25 266h366v36H-25zM734 498h241v36H734zM133-21h101v36H133zM113.5 359.5h140v37h-140zM62.5 599.5h181v37h-181zM398.5 599.5h140v37h-140zM643.5 599.5h120v37h-120zM868.5 599.5h100v37h-100zM1073.5 591.5h237v53h-237zM143.5 72.5h80v21h-80z"/><path d="M139 216h88v21h-88z"/></mask></svg></svg>