<svg xmlns="http://www.w3.org/2000/svg" data-d2-version="v0.6.9" preserveAspectRatio="xMinYMin meet" viewBox="0 0 1271 1390"><svg width="1271" height="1390" class="d2-475314511 d2-svg" viewBox="-33 -33 1271 1390"><rect width="1271" height="1390" x="-33" y="-33" stroke-width="0" rx="0" style="fill:#fff"/><style>.d2-475314511 .text-bold{font-family:&quot;d2-475314511-font-bold&quot;}.d2-475314511 .text-italic{font-family:&quot;d2-475314511-font-italic&quot;}.connection,.shape{stroke-linejoin:round}.shape{shape-rendering:geometricPrecision}.connection{stroke-linecap:round}.d2-475314511 .fill-N1{fill:#0a0f25}.d2-475314511 .fill-N2{fill:#676c7e}.d2-475314511 .fill-N4{fill:#cfd2dd}.d2-475314511 .fill-B6{fill:#f7f8fe}.d2-475314511 .fill-AA4{fill:#edf0fd}.d2-475314511 .stroke-B1{stroke:#0d32b2}</style><g class="dXNlcg=="><g class="shape"><path fill="#f7f8fe" stroke="#0d32b2" d="M549 0h124v66H549z" class="stroke-B1 fill-B6" style="stroke-width:2"/></g><text x="611" y="38.5" fill="#0a0f25" class="text-bold fill-N1" style="text-anchor:middle;font-size:16px">用户代码</text></g><g class="YXBw"><g class="shape"><path fill="#f7f8fe" stroke="#0d32b2" d="M502 187h217v98H502z" class="stroke-B1 fill-B6" style="stroke-width:2"/></g><text x="610.5" y="225.5" fill="#0a0f25" class="text-bold fill-N1" style="text-anchor:middle;font-size:16px"><tspan x="610.5" dy="0">Application ClassLoader</tspan><tspan x="610.5" dy="17.667">应用类加载器</tspan><tspan x="610.5" dy="17.667">classpath</tspan></text></g><g class="cGxhdGZvcm0="><g class="shape"><path fill="#f7f8fe" stroke="#0d32b2" d="M654 406h198v98H654z" class="stroke-B1 fill-B6" style="stroke-width:2"/></g><text x="753" y="444.5" fill="#0a0f25" class="text-bold fill-N1" style="text-anchor:middle;font-size:16px"><tspan x="753" dy="0">Platform ClassLoader</tspan><tspan x="753" dy="17.667">平台类加载器</tspan><tspan x="753" dy="17.667">JDK 内部 API</tspan></text></g><g class="Ym9vdHN0cmFw"><g class="shape"><path stroke="#0d32b2" d="m612 629-70 58 70 59h139l70-59-70-58Z" class="stroke-B1" style="fill:#dee1eb;stroke-width:2"/></g><text x="681.5" y="677" fill="#0a0f25" class="text-bold fill-N1" style="text-anchor:middle;font-size:16px"><tspan x="681.5" dy="0">Bootstrap ClassLoader</tspan><tspan x="681.5" dy="17.667">启动类加载器</tspan><tspan x="681.5" dy="17.667">C++ 实现</tspan></text></g><g class="Y2FjaGU="><g class="shape"><path fill="#cfd2dd" stroke="#0d32b2" d="M143 501h-3L1 456c-1 0-1-1 0-2l139-45h5l139 45c1 0 1 1 0 2l-138 45z" class="stroke-B1 fill-N4" style="stroke-width:2"/></g><text x="143" y="460.5" fill="#0a0f25" class="text-bold fill-N1" style="text-anchor:middle;font-size:16px">类是否已加载?</text></g><g class="cGFyZW50X2xvYWQ="><g class="shape"><path fill="#cfd2dd" stroke="#0d32b2" d="M347 749h-2l-132-61c-1-1-1-2 0-2l132-61c1-1 4-1 5 0l131 60c1 1 1 2 0 2l-132 62z" class="stroke-B1 fill-N4" style="stroke-width:2"/></g><text x="347" y="684.5" fill="#0a0f25" class="text-bold fill-N1" style="text-anchor:middle;font-size:16px"><tspan x="347" dy="0">委托父加载器</tspan><tspan x="347" dy="18.5">加载成功?</tspan></text></g><g class="ZG9uZQ=="><g class="shape"><circle cx="545" cy="1214" r="110" fill="#f7f8fe" stroke="#0d32b2" class="shape stroke-B1 fill-B6" style="stroke-width:2"/></g><text x="545" y="1219.5" fill="#0a0f25" class="text-bold fill-N1" style="text-anchor:middle;font-size:16px">返回 Class 对象</text></g><g class="a2xhc3M="><g class="shape"><path fill="#edf0fd" stroke="#0d32b2" d="M837 894c0-24 73-24 82-24 8 0 81 0 81 24v86c0 24-73 24-81 24-9 0-82 0-82-24z" class="stroke-B1 fill-AA4" style="stroke-width:2"/><path fill="#edf0fd" stroke="#0d32b2" d="M837 894c0 24 73 24 82 24 8 0 81 0 81-24" class="stroke-B1 fill-AA4" style="stroke-width:2"/></g><text x="918.5" y="946.5" fill="#0a0f25" class="text-bold fill-N1" style="text-anchor:middle;font-size:16px"><tspan x="918.5" dy="0">InstanceKlass</tspan><tspan x="918.5" dy="18.5">存入 Metaspace</tspan></text></g><g class="c2VsZg=="><g class="shape"><path fill="#cfd2dd" stroke="#0d32b2" d="M1111 733h-2l-91-45c-1 0-1-1 0-2l91-45h3l92 45c1 0 1 1 0 2l-91 45z" class="stroke-B1 fill-N4" style="stroke-width:2"/></g><text x="1111" y="692.5" fill="#0a0f25" class="text-bold fill-N1" style="text-anchor:middle;font-size:16px">自己加载</text></g><g class="KHVzZXIgLSZndDsgYXBwKVswXQ=="><marker id="mk-d2-475314511-3488378134" markerHeight="12" markerUnits="userSpaceOnUse" markerWidth="10" orient="auto" refX="7" refY="6" viewBox="0 0 10 12"><path stroke-width="2" d="m0 0 10 6-10 6z" class="connection" style="fill:#0d32b2"/></marker><path fill="none" stroke="#0d32b2" marker-end="url(#mk-d2-475314511-3488378134)" d="M610.5 67.5v116" class="connection stroke-B1" mask="url(#d2-475314511)" style="stroke-width:2"/><text x="610.5" y="132" fill="#676c7e" class="text-italic fill-N2" style="text-anchor:middle;font-size:16px">loadClass</text></g><g class="KGFwcCAtJmd0OyBjYWNoZSlbMF0="><path fill="none" stroke="#0d32b2" marker-end="url(#mk-d2-475314511-3488378134)" d="M500.053 261.956C214.8 328.7 143 358.2 143 405" class="connection stroke-B1" mask="url(#d2-475314511)" style="stroke-width:2"/></g><g class="KGNhY2hlIC0mZ3Q7IHBhcmVudF9sb2FkKVswXQ=="><path fill="none" stroke="#0d32b2" marker-end="url(#mk-d2-475314511-3488378134)" d="M174.243 493.567C219 550 245.4 580.4 302.265 641.081" class="connection stroke-B1" mask="url(#d2-475314511)" style="stroke-width:2"/><text x="237" y="576" fill="#676c7e" class="text-italic fill-N2" style="text-anchor:middle;font-size:16px">否</text></g><g class="KGNhY2hlIC0mZ3Q7IGRvbmUpWzBd"><path fill="none" stroke="#0d32b2" marker-end="url(#mk-d2-475314511-3488378134)" d="M136.724 501.98C129.8 551.6 128 589 128 625.75v247.5c0 38.25 62.8 204.95 310.268 300.312" class="connection stroke-B1" mask="url(#d2-475314511)" style="stroke-width:2"/><text x="134" y="934" fill="#676c7e" class="text-italic fill-N2" style="text-anchor:middle;font-size:16px">是 返回已有 Class</text></g><g class="KHBhcmVudF9sb2FkIC0mZ3Q7IGFwcClbMF0="><path fill="none" stroke="#0d32b2" marker-end="url(#mk-d2-475314511-3488378134)" d="M378.016 635.277C411.2 579 419.75 542.6 419.75 509.75s20.8-176.45 100.55-223.226" class="connection stroke-B1" mask="url(#d2-475314511)" style="stroke-width:2"/><text x="424.5" y="447" fill="#676c7e" class="text-italic fill-N2" style="text-anchor:middle;font-size:16px">委托 Platform</text></g><g class="KGFwcCAtJmd0OyBwbGF0Zm9ybSlbMF0="><path fill="none" stroke="#0d32b2" marker-end="url(#mk-d2-475314511-3488378134)" d="M577.653 286.172C546.75 333.3 562.15 357.7 652.203 404.651" class="connection stroke-B1" mask="url(#d2-475314511)" style="stroke-width:2"/><text x="570.5" y="367" fill="#676c7e" class="text-italic fill-N2" style="text-anchor:middle;font-size:16px">委托</text></g><g class="KHBsYXRmb3JtIC0mZ3Q7IGJvb3RzdHJhcClbMF0="><path fill="none" stroke="#0d32b2" marker-end="url(#mk-d2-475314511-3488378134)" d="M654.973 504.418C562.35 552.3 553.8 577.4 610.963 626.397" class="connection stroke-B1" mask="url(#d2-475314511)" style="stroke-width:2"/><text x="562.5" y="558" fill="#676c7e" class="text-italic fill-N2" style="text-anchor:middle;font-size:16px">委托</text></g><g class="KGJvb3RzdHJhcCAtJmd0OyBrbGFzcylbMF0="><path fill="none" stroke="#0d32b2" marker-end="url(#mk-d2-475314511-3488378134)" d="M681.008 748c.192 48.8 31.392 78.2 152.467 143.11" class="connection stroke-B1" mask="url(#d2-475314511)" style="stroke-width:2"/><text x="733" y="843" fill="#676c7e" class="text-italic fill-N2" style="text-anchor:middle;font-size:16px">从 rt.jar/modules 找到就加载</text></g><g class="KGJvb3RzdHJhcCAtJmd0OyBwbGF0Zm9ybSlbMF0="><path fill="none" stroke="#0d32b2" marker-end="url(#mk-d2-475314511-3488378134)" d="M716.015 627.277C745.4 577.4 753 552.3 753 507.5" class="connection stroke-B1" mask="url(#d2-475314511)" style="stroke-width:2"/><text x="748" y="576" fill="#676c7e" class="text-italic fill-N2" style="text-anchor:middle;font-size:16px">没找到 返回 null</text></g><g class="KHBsYXRmb3JtIC0mZ3Q7IGtsYXNzKVswXQ=="><path fill="none" stroke="#0d32b2" marker-end="url(#mk-d2-475314511-3488378134)" d="M828.417 504.605C900.35 552.3 918.75 589 918.75 625.75s.05 195.85.233 240.25" class="connection stroke-B1" mask="url(#d2-475314511)" style="stroke-width:2"/><text x="919" y="670" fill="#676c7e" class="text-italic fill-N2" style="text-anchor:middle;font-size:16px">从模块路径找</text></g><g class="KHBsYXRmb3JtIC0mZ3Q7IGFwcClbMF0="><path fill="none" stroke="#0d32b2" marker-end="url(#mk-d2-475314511-3488378134)" d="M851.027 405.582C943.65 357.7 917.65 330.3 723.074 270.672" class="connection stroke-B1" mask="url(#d2-475314511)" style="stroke-width:2"/><text x="887" y="327" fill="#676c7e" class="text-italic fill-N2" style="text-anchor:middle;font-size:16px">没找到 返回 null</text></g><g class="KGFwcCAtJmd0OyBzZWxmKVswXQ=="><path fill="none" stroke="#0d32b2" marker-end="url(#mk-d2-475314511-3488378134)" d="M720.704 259.929C1032.349 328.3 1110.75 367.4 1110.75 400.25s.05 179.55.237 236.75" class="connection stroke-B1" mask="url(#d2-475314511)" style="stroke-width:2"/><text x="1050" y="343" fill="#676c7e" class="text-italic fill-N2" style="text-anchor:middle;font-size:16px">从 classpath 找</text></g><g class="KHNlbGYgLSZndDsga2xhc3MpWzBd"><path fill="none" stroke="#0d32b2" marker-end="url(#mk-d2-475314511-3488378134)" d="M1110.993 735c-.193 59.2-23.193 89.6-111.651 147.801" class="connection stroke-B1" mask="url(#d2-475314511)" style="stroke-width:2"/><text x="1083" y="833" fill="#676c7e" class="text-italic fill-N2" style="text-anchor:middle;font-size:16px">defineClass→解析字节码</text></g><g class="KGtsYXNzIC0mZ3Q7IGRvbmUpWzBd"><path fill="none" stroke="#0d32b2" marker-end="url(#mk-d2-475314511-3488378134)" d="M918.01 1006c.19 38-54.21 71.4-268.335 163.42" class="connection stroke-B1" mask="url(#d2-475314511)" style="stroke-width:2"/></g><mask id="d2-475314511" width="1271" height="1390" x="-33" y="-33" maskUnits="userSpaceOnUse"><path fill="#fff" d="M-33-33h1271v1390H-33z"/><path fill="rgba(0,0,0,0.75)" d="M571.5 22.5h79v21h-79zM524.5 209.5h172v53h-172zM676.5 428.5h153v53h-153zM601 661h161v53H601zM79 444.5h128v21H79zM287 668.5h120v37H287zM484 1203.5h122v21H484zM859.5 930.5h118v37h-118zM1071.5 676.5h79v21h-79z"/><path d="M578 116h65v21h-65zM227 560h20v21h-20zM65 918h138v21H65zM375 431h99v21h-99zM551 351h39v21h-39zM543 542h39v21h-39zM625 827h216v21H625zM684 560h128v21H684zM861 654h116v21H861zM823 311h128v21H823zM996 327h108v21H996zM992 817h182v21H992z"/></mask></svg></svg>