<svg xmlns="http://www.w3.org/2000/svg" data-d2-version="v0.6.9" preserveAspectRatio="xMinYMin meet" viewBox="0 0 2013 845"><svg width="2013" height="845" class="d2-705353916 d2-svg" viewBox="-23 -53 2013 845"><rect width="2013" height="845" x="-23" y="-53" fill="#fff" stroke-width="0" class="fill-N7" rx="0"/><style>.d2-705353916 .text-bold{font-family:&quot;d2-705353916-font-bold&quot;}.d2-705353916 .text-italic{font-family:&quot;d2-705353916-font-italic&quot;}.connection,.shape{stroke-linejoin:round}.shape{shape-rendering:geometricPrecision}.connection{stroke-linecap:round}.d2-705353916 .fill-N1{fill:#0a0f25}.d2-705353916 .fill-N2{fill:#676c7e}.d2-705353916 .fill-N7{fill:#fff}.d2-705353916 .fill-B5{fill:#edf0fd}.d2-705353916 .fill-B6{fill:#f7f8fe}.d2-705353916 .stroke-B1{stroke:#0d32b2}</style><g class="Y29sdW1ucw=="><g class="shape"><path stroke="#0d32b2" d="M10 20h949v142H10z" class="stroke-B1" style="fill:#e3e9fd;stroke-width:2"/></g><text x="484.5" y="7" fill="#0a0f25" class="fill-N1" style="font-family:&quot;d2-705353916-font-regular&quot;;text-anchor:middle;font-size:28px">columns</text></g><g class="c3RlcDE="><g class="shape"><path fill="#fff" stroke="#0d32b2" d="M1009 58h305v66h-305z" class="stroke-B1 fill-N7" style="stroke-width:0"/></g><text x="1161.5" y="96.5" fill="#0a0f25" class="text-bold fill-N1" style="text-anchor:middle;font-size:16px">obj.getClass().getDeclaredMethods()</text></g><g class="b2Jq"><g class="shape"><path fill="#f7f8fe" stroke="#0d32b2" d="M1658 58h68v66h-68z" class="stroke-B1 fill-B6" style="stroke-width:2"/></g><text x="1692" y="96.5" fill="#0a0f25" class="text-bold fill-N1" style="text-anchor:middle;font-size:16px">obj</text></g><g class="bXc="><g class="shape"><path fill="#f7f8fe" stroke="#0d32b2" d="M1565 303h71v66h-71z" class="stroke-B1 fill-B6" style="stroke-width:2"/></g><text x="1600.5" y="341.5" fill="#0a0f25" class="text-bold fill-N1" style="text-anchor:middle;font-size:16px">mw</text></g><g class="aWs="><g class="shape"><path fill="#f7f8fe" stroke="#0d32b2" d="M1571 490h59v66h-59z" class="stroke-B1 fill-B6" style="stroke-width:2"/></g><text x="1600.5" y="528.5" fill="#0a0f25" class="text-bold fill-N1" style="text-anchor:middle;font-size:16px">ik</text></g><g class="bWlycm9y"><g class="shape"><path fill="#f7f8fe" stroke="#0d32b2" d="M1273 693h91v66h-91z" class="stroke-B1 fill-B6" style="stroke-width:2"/></g><text x="1318.5" y="731.5" fill="#0a0f25" class="text-bold fill-N1" style="text-anchor:middle;font-size:16px">mirror</text></g><g class="c3RlcDI="><g class="shape"><path fill="#fff" stroke="#0d32b2" d="M1374 58h224v66h-224z" class="stroke-B1 fill-N7" style="stroke-width:0"/></g><text x="1486" y="96.5" fill="#0a0f25" class="text-bold fill-N1" style="text-anchor:middle;font-size:16px">method.invoke(obj, args)</text></g><g class="cmVmbA=="><g class="shape"><path fill="#f7f8fe" stroke="#0d32b2" d="M1657 693h70v66h-70z" class="stroke-B1 fill-B6" style="stroke-width:2"/></g><text x="1692" y="731.5" fill="#0a0f25" class="text-bold fill-N1" style="text-anchor:middle;font-size:16px">refl</text></g><g class="Y29sdW1ucy5vYmo="><g class="shape"><path fill="#edf0fd" stroke="#0d32b2" d="M40 50h122v82H40z" class="stroke-B1 fill-B5" style="stroke-width:2"/></g><text x="101" y="88.5" fill="#0a0f25" class="text-bold fill-N1" style="text-anchor:middle;font-size:16px"><tspan x="101" dy="0">Java 对象</tspan><tspan x="101" dy="18.5">(Heap)</tspan></text></g><g class="Y29sdW1ucy5tdw=="><g class="shape"><path fill="#edf0fd" stroke="#0d32b2" d="M222 50h121v82H222z" class="stroke-B1 fill-B5" style="stroke-width:2"/></g><text x="282.5" y="88.5" fill="#0a0f25" class="text-bold fill-N1" style="text-anchor:middle;font-size:16px"><tspan x="282.5" dy="0">对象头</tspan><tspan x="282.5" dy="18.5">Mark Word</tspan></text></g><g class="Y29sdW1ucy5paw=="><g class="shape"><path fill="#edf0fd" stroke="#0d32b2" d="M403 50h142v82H403z" class="stroke-B1 fill-B5" style="stroke-width:2"/></g><text x="474" y="88.5" fill="#0a0f25" class="text-bold fill-N1" style="text-anchor:middle;font-size:16px"><tspan x="474" dy="0">InstanceKlass</tspan><tspan x="474" dy="18.5">(Metaspace)</tspan></text></g><g class="Y29sdW1ucy5taXJyb3I="><g class="shape"><path fill="#edf0fd" stroke="#0d32b2" d="M605 50h153v82H605z" class="stroke-B1 fill-B5" style="stroke-width:2"/></g><text x="681.5" y="88.5" fill="#0a0f25" class="text-bold fill-N1" style="text-anchor:middle;font-size:16px"><tspan x="681.5" dy="0">java.lang.Class</tspan><tspan x="681.5" dy="18.5">(Heap)</tspan></text></g><g class="Y29sdW1ucy5yZWZs"><g class="shape"><path fill="#edf0fd" stroke="#0d32b2" d="M818 58h111v66H818z" class="stroke-B1 fill-B5" style="stroke-width:2"/></g><text x="873.5" y="96.5" fill="#0a0f25" class="text-bold fill-N1" style="text-anchor:middle;font-size:16px">反射 API</text></g><g class="KG9iaiAtJmd0OyBtdylbMF0="><marker id="mk-d2-705353916-2399312758" markerHeight="12" markerUnits="userSpaceOnUse" markerWidth="10" orient="auto" refX="7" refY="6" viewBox="0 0 10 12"><path fill="#e53e3e" stroke-width="2" d="m0 0 10 6-10 6z" class="connection"/></marker><path fill="none" stroke="#e53e3e" marker-end="url(#mk-d2-705353916-2399312758)" d="M1657.574 125.402C1611.8 170.4 1600 254.7 1600 299.5" class="connection" mask="url(#d2-705353916)" style="stroke-width:2"/><text x="1607" y="209" fill="#676c7e" class="text-italic fill-N2" style="text-anchor:middle;font-size:16px">读取对象头中的 Klass 指针</text></g><g class="KG13IC0mZ3Q7IGlrKVswXQ=="><path fill="none" stroke="#e53e3e" marker-end="url(#mk-d2-705353916-2399312758)" d="M1600 370.5v116" class="connection" mask="url(#d2-705353916)" style="stroke-width:2"/><text x="1600" y="435" fill="#676c7e" class="text-italic fill-N2" style="text-anchor:middle;font-size:16px">定位到 InstanceKlass</text></g><g class="KGlrIC0mZ3Q7IG1pcnJvcilbMF0="><path fill="none" stroke="#e53e3e" marker-end="url(#mk-d2-705353916-2399312758)" d="M1568.591 532.839C1334.9 606.048 1281.6 638.3 1302.496 689.794" class="connection" mask="url(#d2-705353916)" style="stroke-width:2"/><text x="1395" y="593" fill="#676c7e" class="text-italic fill-N2" style="text-anchor:middle;font-size:16px">_java_mirror 引用</text></g><g class="KG1pcnJvciAtJmd0OyBvYmopWzBd"><marker id="mk-d2-705353916-2177206569" markerHeight="12" markerUnits="userSpaceOnUse" markerWidth="10" orient="auto" refX="7" refY="6" viewBox="0 0 10 12"><path stroke-width="2" d="m0 0 10 6-10 6z" class="connection" style="fill:#0d32b2"/></marker><path fill="none" marker-end="url(#mk-d2-705353916-2177206569)" d="M1332.752 691.647C1354.4 638.3 1360 604.2 1360 573.75v-284.5c0-28.05 59.6-123.65 294.143-188.189" class="connection" mask="url(#d2-705353916)" style="stroke:#0d32b2;stroke-width:2;stroke-dasharray:6,5.919384"/><text x="1360" y="305" fill="#676c7e" class="text-italic fill-N2" style="text-anchor:middle;font-size:16px">返回 Class 对象</text></g><g class="KHJlZmwgLSZndDsgaWspWzBd"><marker id="mk-d2-705353916-593363566" markerHeight="12" markerUnits="userSpaceOnUse" markerWidth="10" orient="auto" refX="7" refY="6" viewBox="0 0 10 12"><path fill="#3182ce" stroke-width="2" d="m0 0 10 6-10 6z" class="connection"/></marker><path fill="none" stroke="#3182ce" marker-end="url(#mk-d2-705353916-593363566)" d="M1706.275 691.656c22.425-53.356 7.225-82.956-73.579-143.751" class="connection" mask="url(#d2-705353916)" style="stroke-width:2"/><text x="1709" y="611" fill="#676c7e" class="text-italic fill-N2" style="text-anchor:middle;font-size:16px">从 Method 数组查目标方法</text></g><g class="KGlrIC0mZ3Q7IHJlZmwpWzBd"><path fill="none" stroke="#3182ce" marker-end="url(#mk-d2-705353916-593363566)" d="M1571.213 557.031C1526.1 610.7 1543.1 640.7 1654.02 703.529" class="connection" mask="url(#d2-705353916)" style="stroke-width:2"/><text x="1554" y="644" fill="#676c7e" class="text-italic fill-N2" style="text-anchor:middle;font-size:16px"><tspan x="1554" dy="0">返回 ConstMethod</tspan><tspan x="1554" dy="18.5">(字节码+参数信息)</tspan></text></g><g class="KHJlZmwgLSZndDsgb2JqKVswXQ=="><path fill="none" stroke="#3182ce" marker-end="url(#mk-d2-705353916-593363566)" d="M1728.24 704.514C1840.9 640.7 1869.5 604.2 1869.5 573.75v-284.5c0-28.05-28.8-122.05-140.442-179.422" class="connection" mask="url(#d2-705353916)" style="stroke-width:2"/><text x="1870" y="413" fill="#676c7e" class="text-italic fill-N2" style="text-anchor:middle;font-size:16px">执行方法 传入 receiver</text></g><mask id="d2-705353916" width="2013" height="845" x="-23" y="-53" maskUnits="userSpaceOnUse"><path fill="#fff" d="M-23-53h2013v845H-23z"/><path fill="rgba(0,0,0,0.75)" d="M435-21h99v36h-99zM1031.5 80.5h260v21h-260zM1680.5 80.5h23v21h-23zM1587.5 325.5h26v21h-26zM1593.5 512.5h14v21h-14zM1295.5 715.5h46v21h-46zM1396.5 80.5h179v21h-179zM1679.5 715.5h25v21h-25zM62.5 72.5h77v37h-77zM244.5 72.5h76v37h-76zM425.5 72.5h97v37h-97zM627.5 72.5h108v37h-108zM840.5 80.5h66v21h-66z"/><path d="M1500 193h214v21h-214zM1524 419h152v21h-152zM1331 577h128v21h-128zM1301 289h118v21h-118zM1604 595h210v21h-210zM1479 628h150v37h-150zM1782 397h176v21h-176z"/></mask></svg></svg>