<svg xmlns="http://www.w3.org/2000/svg" data-d2-version="v0.6.9" preserveAspectRatio="xMinYMin meet" viewBox="0 0 1365 854"><svg width="1365" height="854" class="d2-4256490293 d2-svg" viewBox="5 -17 1365 854"><rect width="1365" height="854" x="5" y="-17" stroke-width="0" rx="0" style="fill:#fff"/><style>.d2-4256490293 .text{font-family:&quot;d2-4256490293-font-regular&quot;}.d2-4256490293 .text-bold{font-family:&quot;d2-4256490293-font-bold&quot;}.d2-4256490293 .text-italic{font-family:&quot;d2-4256490293-font-italic&quot;}.connection,.shape{stroke-linejoin:round}.shape{shape-rendering:geometricPrecision}.connection{stroke-linecap:round}.d2-4256490293 .fill-N1{fill:#0a0f25}.d2-4256490293 .fill-N2{fill:#676c7e}.d2-4256490293 .fill-B4{fill:#e3e9fd}.d2-4256490293 .fill-B5{fill:#edf0fd}.d2-4256490293 .stroke-B1{stroke:#0d32b2}</style><g class="amF2YQ=="><g class="shape"><path fill="#e3e9fd" stroke="#0d32b2" d="M44 182h189v378H44z" class="stroke-B1 fill-B4" style="stroke-width:2"/></g><text x="138.5" y="169" fill="#0a0f25" class="text fill-N1" style="text-anchor:middle;font-size:28px">☕ Java 层 Heap</text></g><g class="bmF0aXZl"><g class="shape"><path fill="#e3e9fd" stroke="#0d32b2" d="M552 56h302v378H552z" class="stroke-B1 fill-B4" style="stroke-width:2"/></g><text x="703" y="43" fill="#0a0f25" class="text fill-N1" style="text-anchor:middle;font-size:28px">🔗 JNI 桥接</text></g><g class="Y3Bw"><g class="shape"><path fill="#e3e9fd" stroke="#0d32b2" d="M602 520h735v284H602z" class="stroke-B1 fill-B4" style="stroke-width:2"/></g><text x="969.5" y="507" fill="#0a0f25" class="text fill-N1" style="text-anchor:middle;font-size:28px">⚙️ HotSpot C++ Metaspace</text></g><g class="amF2YS5jbGFzc19vYmo="><g class="shape"><path fill="#edf0fd" stroke="#0d32b2" d="M74 212h129v66H74z" class="stroke-B1 fill-B5" style="stroke-width:2"/></g><text x="138.5" y="250.5" fill="#0a0f25" class="text-bold fill-N1" style="text-anchor:middle;font-size:16px">Class&lt;?&gt; clz</text></g><g class="amF2YS5tZXRob2Rfb2Jq"><g class="shape"><path fill="#edf0fd" stroke="#0d32b2" d="M82 338h114v66H82z" class="stroke-B1 fill-B5" style="stroke-width:2"/></g><text x="139" y="376.5" fill="#0a0f25" class="text-bold fill-N1" style="text-anchor:middle;font-size:16px">Method m</text></g><g class="amF2YS5maWVsZF9vYmo="><g class="shape"><path fill="#edf0fd" stroke="#0d32b2" d="M94 464h89v66H94z" class="stroke-B1 fill-B5" style="stroke-width:2"/></g><text x="138.5" y="502.5" fill="#0a0f25" class="text-bold fill-N1" style="text-anchor:middle;font-size:16px">Field f</text></g><g class="bmF0aXZlLmdldF9maWVsZHM="><g class="shape"><path fill="#edf0fd" stroke="#0d32b2" d="M607 86h192v66H607z" class="stroke-B1 fill-B5" style="stroke-width:2"/></g><text x="703" y="124.5" fill="#0a0f25" class="text-bold fill-N1" style="text-anchor:middle;font-size:16px">getDeclaredFields0()</text></g><g class="bmF0aXZlLmdldF9tZXRob2Rz"><g class="shape"><path fill="#edf0fd" stroke="#0d32b2" d="M598 212h211v66H598z" class="stroke-B1 fill-B5" style="stroke-width:2"/></g><text x="703.5" y="250.5" fill="#0a0f25" class="text-bold fill-N1" style="text-anchor:middle;font-size:16px">getDeclaredMethods0()</text></g><g class="bmF0aXZlLmdldF9jdG9ycw=="><g class="shape"><path fill="#edf0fd" stroke="#0d32b2" d="M582 338h242v66H582z" class="stroke-B1 fill-B5" style="stroke-width:2"/></g><text x="703" y="376.5" fill="#0a0f25" class="text-bold fill-N1" style="text-anchor:middle;font-size:16px">getDeclaredConstructors0()</text></g><g class="Y3BwLmlr"><g class="shape"><path fill="#edf0fd" stroke="#0d32b2" d="M632 685h142v66H632z" class="stroke-B1 fill-B5" style="stroke-width:2"/></g><text x="703" y="723.5" fill="#0a0f25" class="text-bold fill-N1" style="text-anchor:middle;font-size:16px">InstanceKlass</text></g><g class="Y3BwLmZh"><g class="shape"><path fill="#edf0fd" stroke="#0d32b2" d="M1158 550h145v82h-145z" class="stroke-B1 fill-B5" style="stroke-width:2"/></g><text x="1230.5" y="588.5" fill="#0a0f25" class="text-bold fill-N1" style="text-anchor:middle;font-size:16px"><tspan x="1230.5" dy="0">FieldInfo[]</tspan><tspan x="1230.5" dy="18.5">字段描述符</tspan></text></g><g class="Y3BwLm1h"><g class="shape"><path fill="#edf0fd" stroke="#0d32b2" d="M1154 692h153v82h-153z" class="stroke-B1 fill-B5" style="stroke-width:2"/></g><text x="1230.5" y="730.5" fill="#0a0f25" class="text-bold fill-N1" style="text-anchor:middle;font-size:16px"><tspan x="1230.5" dy="0">Method[]</tspan><tspan x="1230.5" dy="18.5">方法+字节码</tspan></text></g><g class="KGphdmEuY2xhc3Nfb2JqIC0mZ3Q7IG5hdGl2ZS5nZXRfZmllbGRzKVswXQ=="><marker id="mk-d2-4256490293-3488378134" markerHeight="12" markerUnits="userSpaceOnUse" markerWidth="10" orient="auto" refX="7" refY="6" viewBox="0 0 10 12"><path stroke-width="2" d="m0 0 10 6-10 6z" class="connection" style="fill:#0d32b2"/></marker><path fill="none" stroke="#0d32b2" marker-end="url(#mk-d2-4256490293-3488378134)" d="M176.478 210.652C256.6 137.6 300.1 119 334.75 119H603" class="connection stroke-B1" mask="url(#d2-4256490293)" style="stroke-width:2"/><text x="374.5" y="125" fill="#676c7e" class="text-italic fill-N2" style="text-anchor:middle;font-size:16px">native 调用</text></g><g class="KGphdmEuY2xhc3Nfb2JqIC0mZ3Q7IG5hdGl2ZS5nZXRfbWV0aG9kcylbMF0="><path fill="none" stroke="#0d32b2" marker-end="url(#mk-d2-4256490293-3488378134)" d="M205 245h388.5" class="connection stroke-B1" mask="url(#d2-4256490293)" style="stroke-width:2"/><text x="400.5" y="251" fill="#676c7e" class="text-italic fill-N2" style="text-anchor:middle;font-size:16px">native 调用</text></g><g class="KGphdmEuY2xhc3Nfb2JqIC0mZ3Q7IG5hdGl2ZS5nZXRfY3RvcnMpWzBd"><path fill="none" stroke="#0d32b2" marker-end="url(#mk-d2-4256490293-3488378134)" d="M176.478 279.348C256.6 352.4 300.1 371 334.75 371H578" class="connection stroke-B1" mask="url(#d2-4256490293)" style="stroke-width:2"/><text x="362.5" y="377" fill="#676c7e" class="text-italic fill-N2" style="text-anchor:middle;font-size:16px">native 调用</text></g><g class="KG5hdGl2ZS5nZXRfZmllbGRzIC0mZ3Q7IGNwcC5mYSlbMF0="><path fill="none" stroke="#0d32b2" marker-end="url(#mk-d2-4256490293-3488378134)" d="M801 119c77.2 0 251.4 449.95 353.03 462.269" class="connection stroke-B1" mask="url(#d2-4256490293)" style="stroke-width:2"/><text x="970.5" y="362" fill="#676c7e" class="text-italic fill-N2" style="text-anchor:middle;font-size:16px">遍历 _fields</text></g><g class="KG5hdGl2ZS5nZXRfbWV0aG9kcyAtJmd0OyBjcHAubWEpWzBd"><path fill="none" stroke="#0d32b2" marker-end="url(#mk-d2-4256490293-3488378134)" d="M811.5 245c68.8 0 240.1 439.25 338.642 466.195" class="connection stroke-B1" mask="url(#d2-4256490293)" style="stroke-width:2"/><text x="972" y="487" fill="#676c7e" class="text-italic fill-N2" style="text-anchor:middle;font-size:16px">遍历 _methods</text></g><g class="Y3BwLihpayAtJmd0OyBmYSlbMF0="><path fill="none" stroke="#0d32b2" marker-end="url(#mk-d2-4256490293-3488378134)" d="M775.88 691.068c97.32-35.318 276.52-51.518 378.26-79.266" class="connection stroke-B1" mask="url(#d2-4256490293)" style="stroke-width:2"/></g><g class="Y3BwLihpayAtJmd0OyBtYSlbMF0="><path fill="none" stroke="#0d32b2" marker-end="url(#mk-d2-4256490293-3488378134)" d="M775.947 734.955C873.2 757.7 1051.6 759.7 1150.043 745.087" class="connection stroke-B1" mask="url(#d2-4256490293)" style="stroke-width:2"/></g><mask id="d2-4256490293" width="1365" height="854" x="5" y="-17" maskUnits="userSpaceOnUse"><path fill="#fff" d="M5-17h1365v854H5z"/><path fill="rgba(0,0,0,0.75)" d="M37 141h203v36H37zM626 15h154v36H626zM810 479h319v36H810zM96.5 234.5h84v21h-84zM104.5 360.5h69v21h-69zM116.5 486.5h44v21h-44zM629.5 108.5h147v21h-147zM620.5 234.5h166v21h-166zM604.5 360.5h197v21h-197zM654.5 707.5h97v21h-97zM1180.5 572.5h100v37h-100zM1176.5 714.5h108v37h-108z"/><path d="M333 109h83v21h-83zM359 235h83v21h-83zM321 361h83v21h-83zM928 346h85v21h-85zM918 471h108v21H918z"/></mask></svg></svg>