<svg xmlns="http://www.w3.org/2000/svg" data-d2-version="v0.6.9" preserveAspectRatio="xMinYMin meet" viewBox="0 0 1080 585"><svg width="1080" height="585" class="d2-1241499077 d2-svg" viewBox="-33 -17 1080 585"><rect width="1080" height="585" x="-33" y="-17" stroke-width="0" rx="0" style="fill:#fff"/><style>@keyframes dashdraw{0%{stroke-dashoffset:0}}.d2-1241499077 .text{font-family:&quot;d2-1241499077-font-regular&quot;}.d2-1241499077 .text-bold{font-family:&quot;d2-1241499077-font-bold&quot;}.d2-1241499077 .text-italic{font-family:&quot;d2-1241499077-font-italic&quot;}.connection,.shape{stroke-linejoin:round}.shape{shape-rendering:geometricPrecision}.connection{stroke-linecap:round}.d2-1241499077 .fill-N1{fill:#0a0f25}.d2-1241499077 .fill-N2{fill:#676c7e}.d2-1241499077 .fill-B4{fill:#e3e9fd}.d2-1241499077 .fill-B5{fill:#edf0fd}.d2-1241499077 .fill-B6{fill:#f7f8fe}.d2-1241499077 .stroke-B1,.d2-1241499077 .stroke-B2{stroke:#0d32b2}</style><g class="bmFtZXNlcnZlcg=="><g class="shape"><path fill="#e3e9fd" stroke="#0d32b2" d="M809 56h205v445H809z" class="stroke-B1 fill-B4" style="stroke-width:2"/></g><text x="911.5" y="43" fill="#0a0f25" class="text fill-N1" style="text-anchor:middle;font-size:28px">nameserver</text></g><g class="YnJva2Vy"><g class="shape"><path fill="#e3e9fd" stroke="#0d32b2" d="M374 260h184v275H374z" class="stroke-B1 fill-B4" style="stroke-width:2"/></g><text x="466" y="247" fill="#0a0f25" class="text fill-N1" style="text-anchor:middle;font-size:28px">broker</text></g><g class="cHJvZHVjZXI="><g class="shape"><circle cx="75.5" cy="207.5" r="69.5" fill="#f7f8fe" stroke="#0d32b2" class="shape stroke-B1 fill-B6" style="stroke-width:2"/></g><text x="75.5" y="213" fill="#0a0f25" class="text-bold fill-N1" style="text-anchor:middle;font-size:16px">Producer</text></g><g class="Y29uc3VtZXI="><g class="shape"><circle cx="75.5" cy="412.5" r="75.5" fill="#f7f8fe" stroke="#0d32b2" class="shape stroke-B1 fill-B6" style="stroke-width:2"/></g><text x="75.5" y="418" fill="#0a0f25" class="text-bold fill-N1" style="text-anchor:middle;font-size:16px">Consumer</text></g><g class="bmFtZXNlcnZlci5OYW1lU2VydmVy"><g class="shape"><path fill="#edf0fd" stroke="#0d32b2" d="M845 86h133v66H845z" class="stroke-B1 fill-B5" style="stroke-width:2"/></g><text x="911.5" y="124.5" fill="#0a0f25" class="text-bold fill-N1" style="text-anchor:middle;font-size:16px">NameServer</text></g><g class="bmFtZXNlcnZlci7ot6_nlLHms6jlhozooag="><g class="shape"><path fill="#edf0fd" stroke="#0d32b2" d="M839 235h145v66H839z" class="stroke-B1 fill-B5" style="stroke-width:2"/></g><text x="911.5" y="273.5" fill="#0a0f25" class="text-bold fill-N1" style="text-anchor:middle;font-size:16px">路由注册表</text></g><g class="YnJva2VyLkJyb2tlcg=="><g class="shape"><path fill="#edf0fd" stroke="#0d32b2" d="M419 290h93v66h-93z" class="stroke-B1 fill-B5" style="stroke-width:2"/></g><text x="465.5" y="328.5" fill="#0a0f25" class="text-bold fill-N1" style="text-anchor:middle;font-size:16px">Broker</text></g><g class="YnJva2VyLua2iOaBr-WtmOWCqA=="><g class="shape"><path fill="#edf0fd" stroke="#0d32b2" d="M404 439h124v66H404z" class="stroke-B1 fill-B5" style="stroke-width:2"/></g><text x="466" y="477.5" fill="#0a0f25" class="text-bold fill-N1" style="text-anchor:middle;font-size:16px">消息存储</text></g><g class="KHByb2R1Y2VyIC0mZ3Q7IG5hbWVzZXJ2ZXIpWzBd"><marker id="mk-d2-1241499077-2177206569" markerHeight="12" markerUnits="userSpaceOnUse" markerWidth="10" orient="auto" refX="7" refY="6" viewBox="0 0 10 12"><path stroke-width="2" d="m0 0 10 6-10 6z" class="connection" style="fill:#0d32b2"/></marker><path fill="none" stroke="#0d32b2" marker-end="url(#mk-d2-1241499077-2177206569)" d="M134.628 166.839C225 102.399 267.4 86 296.5 86H805" class="connection stroke-B2" mask="url(#d2-1241499077)" style="stroke-width:2;stroke-dasharray:6,5.919384"/><text x="458.5" y="92" fill="#676c7e" class="text-italic fill-N2" style="text-anchor:middle;font-size:16px">查询路由</text></g><g class="KGNvbnN1bWVyIC0mZ3Q7IG5hbWVzZXJ2ZXIpWzBd"><path fill="none" stroke="#0d32b2" marker-end="url(#mk-d2-1241499077-2177206569)" d="M127.33 354.506C223.6 246.4 267.4 219 296.5 219H805" class="connection stroke-B2" mask="url(#d2-1241499077)" style="stroke-width:2;stroke-dasharray:6,5.919384"/><text x="438.5" y="225" fill="#676c7e" class="text-italic fill-N2" style="text-anchor:middle;font-size:16px">查询路由</text></g><g class="KHByb2R1Y2VyIC0mZ3Q7IGJyb2tlcilbMF0="><marker id="mk-d2-1241499077-3488378134" markerHeight="12" markerUnits="userSpaceOnUse" markerWidth="10" orient="auto" refX="7" refY="6" viewBox="0 0 10 12"><path stroke-width="2" d="m0 0 10 6-10 6z" class="connection" style="fill:#0d32b2"/></marker><path fill="none" stroke="#0d32b2" marker-end="url(#mk-d2-1241499077-3488378134)" d="M127.461 256.365C223.6 346.2 273.2 369 370 369" class="connection animated-connection stroke-B1" mask="url(#d2-1241499077)" style="stroke-width:2;stroke-dasharray:10,9.865639;stroke-dashoffset:-198.656393;animation:dashdraw 4.93282s linear infinite"/><text x="233.5" y="356" fill="#676c7e" class="text-italic fill-N2" style="text-anchor:middle;font-size:16px">发送消息</text></g><g class="KGNvbnN1bWVyIC0mZ3Q7IGJyb2tlcilbMF0="><path fill="none" stroke="#0d32b2" marker-end="url(#mk-d2-1241499077-3488378134)" d="M144.792 446.888C227 487.6 273.2 498 370 498" class="connection animated-connection stroke-B1" mask="url(#d2-1241499077)" style="stroke-width:2;stroke-dasharray:10,9.865639;stroke-dashoffset:-198.656393;animation:dashdraw 4.93282s linear infinite"/><text x="253.5" y="499" fill="#676c7e" class="text-italic fill-N2" style="text-anchor:middle;font-size:16px">拉取消息</text></g><g class="KGJyb2tlciAtJmd0OyBuYW1lc2VydmVyKVswXQ=="><path fill="none" stroke="#0d32b2" marker-end="url(#mk-d2-1241499077-2177206569)" d="M560 471.5h245" class="connection stroke-B2" mask="url(#d2-1241499077)" style="stroke-width:2;stroke-dasharray:6,5.919384"/><text x="683.5" y="477" fill="#676c7e" class="text-italic fill-N2" style="text-anchor:middle;font-size:16px">注册心跳</text></g><mask id="d2-1241499077" width="1080" height="585" x="-33" y="-17" maskUnits="userSpaceOnUse"><path fill="#fff" d="M-33-17h1080v585H-33z"/><path fill="rgba(0,0,0,0.75)" d="M843 15h137v36H843zM427.5 219h77v36h-77zM43 197h65v21H43zM39 402h73v21H39zM867.5 108.5h88v21h-88zM861.5 257.5h100v21h-100zM441.5 312.5h48v21h-48zM426.5 461.5h79v21h-79z"/><path d="M420 76h77v21h-77zM400 209h77v21h-77zM195 340h77v21h-77zM215 483h77v21h-77zM645 461h77v21h-77z"/></mask></svg></svg>